<svg width="975" height="1024" viewBox="0 0 975 1024" fill="none" xmlns="http://www.w3.org/2000/svg">
<path d="M606.911 154.957C606.911 143.225 608.869 132.471 613.764 122.694C617.68 114.873 622.575 108.03 629.428 102.164C633.344 99.2311 637.26 97.2758 641.176 96.2981C647.05 94.3429 653.903 94.3429 659.777 97.2758C659.777 97.2758 659.777 98.2534 660.756 98.2534H659.777C657.819 98.2534 655.861 99.2311 653.903 99.2311C643.134 101.186 634.323 106.075 628.449 115.851C620.617 127.583 617.68 141.27 618.659 155.934C619.638 164.733 622.575 171.576 630.407 177.442C637.26 182.33 645.092 185.263 653.903 184.286C656.84 184.286 659.777 183.308 662.714 182.33C666.63 180.375 670.546 178.42 674.462 175.487C681.315 171.576 687.189 165.711 693.064 160.822C703.833 151.046 713.623 139.314 721.455 127.583C727.329 119.761 732.223 110.963 738.098 103.142C739.077 102.164 739.077 101.186 739.077 101.186C739.077 100.209 739.077 99.231 738.098 98.2534C737.119 97.2758 736.14 97.2758 735.161 96.2981C727.329 92.3876 720.476 88.4771 712.644 84.5665C707.749 81.6336 701.874 79.6782 696 78.7006H695.021C693.063 77.723 691.105 76.7453 691.105 73.8124C691.105 71.8571 692.084 69.9018 694.042 68.9242C696 67.9466 697.958 66.9689 700.895 66.9689C703.832 66.9689 705.791 67.9466 707.749 68.9242C711.665 69.9018 714.602 71.8572 717.539 72.8348C724.392 76.7454 732.224 80.6559 739.077 83.5888C741.035 84.5664 742.014 85.5441 743.972 86.5217C745.93 87.4994 747.888 88.477 749.846 86.5217C750.825 85.5441 751.804 85.5441 752.783 84.5665C754.741 83.5889 756.699 84.5664 757.678 85.544C758.657 86.5217 758.657 87.4994 758.657 88.477V89.4547C756.699 94.3429 757.678 94.3429 761.594 97.2758C773.342 105.097 785.09 112.918 795.859 120.739C801.733 124.65 806.628 129.538 811.523 133.448C813.481 135.404 815.439 137.359 817.397 139.314C819.355 141.27 820.334 143.225 821.313 146.158C821.313 147.135 821.313 148.113 821.313 149.091C820.334 150.068 819.355 150.068 818.376 150.068C816.418 149.091 814.46 148.113 812.502 147.135C810.544 145.18 807.607 144.202 805.649 142.247C800.754 139.314 796.838 135.404 791.943 132.471C780.195 123.672 767.468 115.851 754.741 108.03C748.867 105.097 748.867 105.097 745.93 109.985C740.056 119.761 734.181 128.56 728.307 138.337C719.496 150.068 710.685 161.8 699.916 172.554C693.063 179.398 685.231 186.241 676.42 191.129C671.525 194.062 665.651 196.995 659.777 197.973C641.176 202.861 623.554 195.04 613.764 182.33C608.869 176.465 606.911 168.644 605.932 160.822C606.911 158.867 606.911 155.934 606.911 154.957Z" fill="black"/>
<path d="M419.921 137.359C419.921 155.934 418.942 173.532 416.005 192.107C415.026 200.906 413.068 210.682 410.131 219.481C409.152 223.391 407.194 228.279 405.236 232.19C404.257 236.101 401.32 239.033 399.362 241.966C397.404 243.922 395.446 246.855 392.509 247.832C384.677 252.72 377.824 252.721 369.992 248.81C367.055 246.855 364.118 244.899 362.16 241.966C360.202 240.011 359.223 238.056 357.265 235.123C349.433 219.481 345.516 203.838 346.495 186.241C346.495 181.353 348.454 177.442 350.412 173.532C351.391 172.554 351.391 171.576 352.37 170.599H353.349C353.349 170.599 353.349 170.599 353.349 171.576C353.349 172.554 353.349 173.532 353.349 174.509C349.433 193.084 353.349 209.704 362.16 226.324C364.118 230.235 366.076 233.168 369.013 236.101C370.971 238.056 372.929 239.034 374.887 240.011C377.824 240.989 379.782 240.989 381.74 239.034C383.698 238.056 385.656 236.101 386.635 234.145C388.593 231.212 389.572 228.279 391.53 225.347C394.467 218.503 395.446 211.66 397.404 204.816C400.341 189.174 402.299 173.532 403.278 157.889C404.257 144.203 403.278 129.538 403.278 115.851C403.278 112.918 402.299 109.007 402.299 106.075C402.299 106.075 402.299 105.097 401.32 105.097H400.341C399.362 106.074 398.383 107.052 398.383 109.007C395.446 113.896 392.509 119.761 389.572 124.65C384.677 132.471 378.803 139.314 372.929 145.18C369.013 149.091 364.118 153.001 358.244 155.934C355.307 157.889 351.391 158.867 347.474 158.867C342.579 158.867 338.664 157.889 334.748 153.979C331.811 152.024 329.852 149.091 327.894 145.18C324.957 139.314 323 132.471 321.042 126.605C319.084 118.784 319.083 111.94 319.083 104.119C319.083 91.41 320.062 77.723 323.978 65.0137C324.957 63.0584 324.958 61.1032 325.937 58.1703C325.937 57.1926 326.915 56.2149 327.894 55.2373C328.873 54.2597 330.831 53.282 331.81 54.2596C332.789 55.2372 333.768 56.2149 333.768 57.1926C333.768 59.1478 333.768 61.1032 333.768 63.0584C332.789 67.9466 332.789 72.8348 331.81 77.723C330.831 89.4547 329.853 102.164 330.832 113.896C330.832 119.762 331.81 125.627 333.768 130.516C334.747 134.426 336.705 138.337 338.664 141.27C341.601 146.158 345.516 147.135 351.39 144.202C354.327 143.225 356.286 141.27 358.244 140.292C362.16 137.359 365.097 134.426 368.034 131.493C379.782 117.806 388.593 103.142 395.446 86.5217C395.446 85.5441 396.425 84.5664 396.425 83.5888C398.383 77.723 399.362 71.8572 397.404 65.0137C396.425 59.1479 395.446 53.282 394.467 47.4162C394.467 44.4832 394.467 42.5279 394.467 39.595C394.467 37.6397 394.467 36.6621 395.446 34.7068C396.425 31.7739 399.362 30.7963 402.299 30.7963C405.236 30.7963 407.194 31.7739 409.152 34.7068C410.131 35.6844 410.131 37.6397 410.131 39.595C411.11 43.5056 411.11 47.4161 412.089 51.3267C413.068 59.1478 414.047 67.9465 415.026 75.7676C418.942 96.2981 419.921 116.829 419.921 137.359Z" fill="black"/>
<path d="M526.633 133.448C526.633 131.493 526.633 128.56 526.633 126.605L525.654 125.627C525.654 125.627 525.654 125.627 524.674 125.627C523.695 126.605 522.716 127.583 522.716 128.56C519.779 132.471 517.821 135.404 514.884 139.314C513.905 141.27 511.947 142.247 509.989 144.202C509.01 145.18 507.052 146.158 505.094 146.158C503.136 146.158 501.178 146.158 500.199 144.202C499.22 143.225 498.241 142.247 497.262 140.292C496.283 139.314 495.304 139.314 494.325 140.292C493.346 141.27 492.367 143.225 491.388 144.202C490.409 146.158 488.451 148.113 486.493 149.091C485.514 150.068 484.535 151.046 482.577 152.024C476.703 154.957 470.829 153.001 467.892 147.135C466.913 145.18 466.913 142.247 465.934 140.292C465.934 139.314 465.934 138.337 464.955 137.359H463.976C462.997 138.337 462.997 138.337 462.018 139.314C460.06 141.27 459.081 144.203 457.123 146.158C455.165 148.113 453.207 149.091 451.249 150.068C445.375 153.001 439.501 150.068 437.543 143.225C436.564 140.292 436.564 137.359 436.564 134.426C436.564 130.515 437.543 127.583 438.522 123.672C439.501 120.739 440.48 117.806 440.48 113.896C440.48 111.94 441.459 110.963 442.438 109.985C444.396 108.03 446.354 107.052 447.333 105.097C449.291 103.142 452.228 102.164 455.165 102.164C459.081 102.164 462.018 101.186 464.955 99.2311C466.913 98.2535 468.871 97.2758 470.829 96.2981C471.808 96.2981 472.787 95.3204 473.766 95.3204C478.661 94.3428 482.577 97.2758 483.556 101.186C484.535 104.119 484.535 106.075 483.556 109.007C482.577 114.873 481.598 120.739 480.619 125.627C480.619 128.56 479.64 131.493 479.64 134.426L480.619 135.404C480.619 135.404 480.619 135.404 481.598 135.404C481.598 135.404 481.598 135.404 482.577 135.404L483.556 134.426C488.451 128.56 492.367 121.717 494.325 113.896C495.304 111.94 495.304 109.008 496.283 107.052C496.283 106.075 497.262 104.119 498.241 103.142C499.22 101.186 502.157 100.209 505.094 100.209C508.031 101.186 509.989 103.142 509.989 106.075C509.989 108.03 509.989 109.007 509.989 110.963C509.01 114.873 509.01 118.784 508.031 123.672C508.031 125.627 508.031 127.583 508.031 129.538C508.031 129.538 508.031 130.516 509.01 130.516H509.989C510.968 129.538 511.947 129.538 512.926 128.56C517.821 121.717 522.717 114.873 526.633 108.03C527.612 107.052 527.611 105.097 528.59 104.119C531.527 100.209 536.423 101.186 538.381 105.097C539.36 106.074 539.36 108.03 539.36 109.985C539.36 112.918 539.36 114.873 539.36 117.806C539.36 118.784 539.36 119.762 539.36 120.739C539.36 120.739 540.339 121.717 541.318 121.717C542.297 120.739 543.276 119.762 544.255 118.784C548.171 114.873 552.087 110.963 556.982 107.052C562.856 101.186 570.688 96.2982 577.541 92.3876C582.436 90.4324 586.352 88.477 591.247 86.5218C595.163 85.5441 599.079 85.5441 602.995 85.5441C604.953 85.5441 606.911 86.5218 608.869 87.4995C609.848 88.4771 609.848 88.4771 610.827 89.4547C611.806 90.4323 610.827 92.3876 609.848 92.3876C608.869 92.3876 606.911 93.3652 605.932 93.3652C599.079 93.3652 592.226 96.2982 585.373 99.2311C581.457 101.186 577.541 104.119 573.625 107.052C564.814 113.896 556.982 122.694 550.129 131.493C547.192 134.426 545.234 138.337 543.276 141.27C542.297 143.225 540.339 145.18 538.381 146.158C534.464 149.091 529.57 147.135 526.633 143.225C525.654 142.247 525.654 140.292 525.654 139.314C525.654 138.337 525.654 136.381 526.633 133.448C525.654 133.448 525.654 133.448 526.633 133.448ZM467.892 121.717C467.892 121.717 468.871 121.717 468.871 120.739C469.85 116.829 470.829 112.918 471.808 109.007C471.808 108.03 470.829 107.052 469.85 107.052C466.913 108.03 463.976 109.007 461.039 109.985C460.06 109.985 460.06 111.94 461.039 112.918C462.997 115.851 464.955 117.806 466.913 121.717C466.913 120.739 466.913 120.739 467.892 121.717ZM455.165 124.65C454.186 123.672 454.186 121.717 453.207 120.739C452.228 119.762 451.249 119.762 450.27 120.739C448.312 125.627 446.354 130.516 446.354 135.404V136.381L447.333 137.359C448.312 137.359 448.312 136.381 449.291 136.381C451.249 134.426 453.207 131.493 454.186 128.56C455.165 128.56 455.165 126.605 455.165 124.65Z" fill="black"/>
<path d="M277.965 169.621C277.965 166.688 277.965 162.778 277.965 159.845C277.965 158.867 277.965 158.867 278.944 158.867C278.944 158.867 278.944 158.867 279.923 158.867C279.923 159.845 280.902 160.822 280.902 160.822C283.839 170.599 283.839 180.375 280.902 191.129C279.923 193.084 279.923 195.04 278.944 196.017C275.028 202.861 269.154 203.838 262.301 200.906C259.364 199.928 256.427 197.973 254.469 195.04C251.532 192.107 248.595 188.196 245.658 184.286C241.742 179.397 237.826 173.532 234.889 168.643C233.91 167.666 232.931 165.711 232.931 164.733C230.973 160.822 229.015 159.845 227.057 163.755C223.141 169.621 219.225 176.465 215.309 182.33C213.351 185.263 213.351 187.219 214.33 190.152C215.309 195.04 216.288 199.928 218.246 203.838C220.204 210.682 223.141 218.503 225.099 225.347C226.078 227.302 226.078 229.257 227.057 230.235C228.036 232.19 226.078 235.123 224.12 236.101C222.162 237.078 219.225 237.078 217.267 235.123C215.309 233.168 214.33 231.212 212.372 229.257C210.414 226.324 208.456 223.391 206.498 221.436H205.519C205.519 221.436 205.519 221.436 205.519 222.414C205.519 223.391 205.519 224.369 206.498 225.347C207.477 228.279 208.456 230.235 209.435 233.168C210.414 235.123 210.414 238.056 211.393 240.989C211.393 241.966 211.393 242.944 211.393 243.922C211.393 245.877 209.435 246.855 207.477 247.832C206.498 248.81 203.561 247.832 203.561 249.788C202.582 250.765 203.561 252.721 203.561 253.698C203.561 258.586 202.582 262.497 200.624 267.385C199.645 270.318 198.666 272.273 198.666 275.206C198.666 279.117 198.666 282.05 197.687 285.96C197.687 290.848 195.729 295.737 193.771 300.625C192.792 303.558 190.834 305.513 189.855 307.468C183.981 315.289 174.191 318.222 164.401 314.312C160.485 312.357 156.569 310.401 152.653 307.468C146.779 302.58 140.905 297.692 135.031 292.804C133.073 290.848 132.094 289.871 130.136 287.916C129.157 286.938 128.177 287.915 128.177 288.893C128.177 289.871 127.198 291.826 127.198 292.804C126.219 295.737 122.304 296.714 119.366 294.759C117.408 292.804 116.429 291.826 116.429 288.893C116.429 286.938 116.429 285.96 116.429 284.005C116.429 282.05 116.429 280.094 117.408 278.139C118.387 274.229 117.408 272.273 114.471 269.34C109.576 263.474 103.702 258.586 97.8283 253.698C95.8702 252.721 94.8912 250.765 92.9332 249.788C91.9542 247.832 90.9752 245.877 91.9542 243.922C92.9332 241.967 94.8912 240.989 96.8492 240.989C97.8282 240.989 99.7864 241.966 100.765 241.966C103.702 243.922 105.66 244.899 108.597 246.855C111.534 248.81 114.471 251.743 117.408 254.676C118.387 255.653 119.367 256.631 120.346 257.609C121.325 258.586 123.282 258.586 123.282 257.609C124.261 256.631 124.262 255.653 125.241 253.698C126.22 251.743 127.198 249.788 128.177 248.81C130.135 245.877 133.072 242.944 136.009 240.989C136.988 240.011 137.968 240.011 138.947 240.989C139.926 241.966 140.904 242.944 140.904 243.922C140.904 246.855 140.905 248.81 139.926 251.743C138.947 255.653 137.967 258.586 136.009 262.497C135.03 264.452 134.052 267.385 133.072 269.34C132.093 271.296 133.073 272.273 134.052 274.229L135.031 275.206C142.863 283.027 150.695 291.826 159.506 298.67C161.464 299.647 163.422 301.603 165.38 302.58C166.359 303.558 168.317 304.535 169.296 304.535C173.212 306.491 177.128 305.513 181.044 302.58C182.023 301.603 183.002 299.647 183.981 298.67C187.897 291.826 188.876 284.983 189.855 277.161C189.855 275.206 188.876 274.229 187.897 273.251C186.918 273.251 186.918 272.273 185.939 272.273C183.002 270.318 181.044 268.363 179.086 265.43C173.212 256.631 169.296 246.855 168.317 237.078C168.317 234.145 168.317 230.235 168.317 227.302C169.296 223.391 171.254 220.458 174.191 217.525C180.065 213.615 188.876 214.592 192.792 220.458C193.771 222.414 194.75 223.391 193.771 225.347C192.792 227.302 193.771 229.257 194.75 230.235C196.708 232.19 197.687 234.145 199.645 236.101C200.624 237.078 201.603 237.078 201.603 237.078C202.582 236.101 201.603 235.123 201.603 234.145C200.624 231.212 199.645 228.279 198.666 225.347C196.708 219.481 193.771 213.615 191.813 207.749C190.834 206.771 190.834 204.816 190.834 203.838C190.834 200.906 192.792 198.95 195.729 198.95C197.687 198.95 198.666 199.928 199.645 200.906C202.582 202.861 204.54 205.794 207.477 207.749C208.456 208.727 209.435 208.727 210.414 209.704H211.393C211.393 208.727 211.393 208.727 211.393 207.749C210.414 202.861 209.435 197.973 208.456 193.084C208.456 191.129 207.477 189.174 206.498 187.219C205.519 185.263 205.519 183.308 205.519 181.353C206.498 176.465 205.519 170.599 204.54 165.711C203.561 152.024 204.54 139.314 207.477 125.627C208.456 119.761 210.414 113.896 210.414 108.03V107.052C211.393 105.097 213.351 104.119 215.309 105.097C216.288 106.074 217.267 107.052 218.246 108.03C219.225 109.985 221.183 112.918 222.162 114.873C225.099 120.739 227.057 126.605 229.994 132.471C230.973 133.448 230.973 134.426 231.952 136.381C231.952 136.381 233.91 137.359 233.91 136.381C234.889 135.404 235.868 134.426 236.847 133.448C238.805 131.493 241.742 128.56 243.7 126.605C245.658 124.65 247.616 123.672 250.553 122.694C252.511 121.717 253.49 121.717 255.448 122.694C256.427 122.694 258.385 124.65 258.385 125.627C258.385 126.605 258.385 127.583 258.385 128.56C257.406 130.516 256.427 132.471 255.448 134.426C254.469 136.381 252.511 137.359 251.532 139.314C249.574 141.269 247.616 144.203 245.658 146.158C240.763 152.024 240.763 152.024 243.7 158.867C247.616 167.666 252.511 175.487 258.385 184.286C260.343 187.219 262.301 190.152 265.238 192.107C266.217 194.062 268.175 195.04 270.133 196.017C272.091 197.973 275.028 196.995 276.986 195.04C278.944 193.085 279.923 191.129 279.923 189.174C280.902 186.241 280.902 183.308 281.881 179.397C277.965 175.487 277.965 172.554 277.965 169.621ZM205.519 135.404C204.54 145.18 205.519 153.979 207.477 163.755C207.477 164.733 208.456 165.711 208.456 166.688C208.456 167.666 209.435 167.666 209.435 166.688C209.435 166.688 210.414 166.688 210.414 165.711C214.33 159.845 218.246 154.956 222.162 149.091C222.162 149.091 222.162 149.091 222.162 148.113C223.141 147.135 223.141 146.158 222.162 145.18C222.162 144.202 221.183 143.225 221.183 142.247C218.246 135.404 216.288 127.583 213.351 120.739C213.351 119.761 212.372 117.806 211.393 116.829L210.414 115.851H209.435C208.456 116.829 208.456 117.806 207.477 118.784C206.498 124.65 205.519 130.516 205.519 135.404ZM175.17 231.212C175.17 232.19 175.17 232.19 175.17 233.168C176.149 241.966 179.086 250.765 183.981 258.586L184.96 259.564H186.918C186.918 258.586 186.918 257.609 187.897 256.631C187.897 255.653 188.876 254.676 189.855 254.676C190.834 254.676 190.834 253.698 190.834 252.72C190.834 251.743 190.834 250.765 189.855 249.788C187.897 241.966 183.002 236.101 177.128 230.235H175.17C175.17 230.235 175.17 230.235 175.17 231.212Z" fill="black"/>
<path d="M77.269 311.379C70.416 311.379 64.5419 310.401 57.6889 310.401C53.7729 310.401 49.857 309.424 45.941 308.446C37.13 305.513 31.2559 299.647 26.3609 291.826C24.4029 288.893 23.4237 284.983 23.4237 281.072C23.4237 275.206 25.3819 270.318 31.2559 267.385C33.214 266.407 35.1718 265.43 38.1088 264.452C43.0038 263.475 46.9201 262.497 51.8151 262.497C62.5842 262.497 72.374 265.43 83.1431 269.34C87.0591 271.296 90.9753 273.251 94.8913 276.184C95.8703 277.161 96.8492 278.139 97.8282 279.117C98.8072 280.094 97.8284 282.05 95.8703 283.027C94.8913 284.005 92.9331 284.005 91.9541 283.027C89.9961 282.05 88.0382 282.05 85.1012 281.072C80.2062 279.117 75.3112 277.162 70.4162 275.206C66.5001 274.229 62.584 273.251 58.668 273.251C53.7729 272.273 47.8989 272.273 43.0038 273.251C41.0458 273.251 39.0881 274.229 37.13 275.206C35.172 276.184 34.1928 278.139 34.1928 281.072C34.1928 283.027 35.172 284.005 36.151 285.96C39.088 291.826 43.983 295.737 49.857 297.692C52.794 298.67 55.731 299.647 58.668 299.647C63.563 299.647 67.479 299.647 72.374 299.647C81.185 299.647 89.9962 299.647 98.8072 300.625C107.618 301.602 116.429 303.558 125.241 306.491C139.926 312.357 151.673 320.178 161.464 331.909C164.401 334.842 166.359 338.753 168.317 342.663C169.296 344.619 170.275 347.551 170.275 349.507C171.254 356.35 170.275 363.194 164.401 369.06C161.464 371.992 158.527 373.948 154.611 375.903C149.716 377.858 144.821 378.836 138.947 378.836C133.072 378.836 127.198 377.858 121.324 375.903C112.513 372.97 103.702 369.06 96.8491 363.194C92.9331 360.261 89.0171 356.35 87.0591 351.462C87.0591 350.485 87.0591 350.484 87.0591 349.507L88.0381 348.529C89.0171 348.529 89.9963 349.507 90.9753 349.507C94.8913 351.462 97.8281 354.395 101.744 356.35C108.597 360.261 115.45 363.194 122.303 365.149C127.198 366.127 133.072 367.104 138.947 367.104C141.884 367.104 145.8 366.127 148.737 365.149C150.695 364.171 153.632 363.194 154.611 361.239C157.548 358.306 158.527 354.395 157.548 349.507C156.569 346.574 155.59 344.619 154.611 341.686C152.653 337.775 149.715 334.842 146.778 331.909C137.967 323.111 126.219 317.245 114.471 313.334C105.66 310.401 96.8491 309.424 87.0591 309.424C82.164 311.379 80.206 311.379 77.269 311.379Z" fill="black"/>
<path d="M151.674 712.211C158.527 712.211 165.38 713.189 171.254 714.167C176.149 715.144 181.044 716.122 185.939 718.077C204.54 723.943 222.162 730.786 238.805 739.585C243.7 742.518 249.574 745.451 254.469 749.361C259.364 753.272 264.259 757.183 268.175 762.071C270.133 765.004 272.091 766.959 273.07 769.892C274.049 772.825 275.028 775.758 274.049 777.713C274.049 780.646 272.091 783.579 270.133 786.512C269.154 787.49 268.175 787.49 268.175 787.49C267.196 787.49 267.196 786.512 267.196 785.534C267.196 784.557 267.196 782.601 266.217 781.624C265.238 776.735 263.28 772.825 259.364 768.914C257.406 766.959 254.469 765.004 251.532 763.049C244.679 758.16 236.847 754.25 229.015 750.339C228.036 750.339 228.036 749.361 227.057 749.361C226.078 749.361 225.099 749.361 224.12 749.361C223.141 749.361 223.141 750.339 222.162 750.339C215.309 757.183 207.477 763.048 200.624 769.892C193.771 774.78 186.918 780.646 181.044 785.534C165.38 798.244 149.716 810.953 135.031 823.662C134.052 824.64 132.093 825.618 131.114 826.595C130.135 827.573 128.177 827.573 127.198 825.617C125.24 823.662 125.24 821.707 126.219 819.752C127.198 817.796 128.178 815.841 129.157 814.863C132.094 811.93 135.031 808.998 137.968 806.065C142.863 801.176 147.758 796.288 153.632 792.378C168.317 779.668 183.002 768.914 198.666 757.183C203.561 753.272 208.456 750.339 213.351 746.429C214.33 745.451 215.309 744.473 215.309 744.473V743.496C215.309 743.496 214.33 742.518 213.351 742.518C197.687 735.675 182.023 729.809 165.38 724.92C159.506 723.943 153.632 722.965 147.758 721.988C144.821 721.988 142.863 721.988 139.926 721.988C138.947 721.988 137.968 721.01 137.968 719.055C137.968 718.077 137.968 717.099 138.947 716.122C139.926 715.144 140.905 714.167 142.863 713.189C144.821 713.189 148.737 712.211 151.674 712.211Z" fill="black"/>
<path d="M185.939 857.879C184.96 857.879 183.002 857.879 182.023 857.879C180.065 857.879 178.107 856.902 176.149 856.902C169.296 854.946 165.38 848.103 167.338 840.282C168.317 838.327 169.296 835.394 170.275 833.438C174.191 826.595 180.065 820.729 187.897 816.819C190.834 814.863 193.771 813.886 197.687 813.886C200.624 813.886 202.582 813.886 205.519 814.863C211.393 816.819 216.288 822.684 215.309 830.506C215.309 832.461 214.33 834.416 214.33 837.349C213.351 842.237 211.393 846.148 207.477 849.081C201.603 853.969 193.771 856.902 185.939 857.879ZM186.918 844.193C190.834 844.193 193.771 843.215 196.708 842.237C197.687 842.237 198.666 841.26 199.645 841.26C202.582 839.304 204.54 836.371 203.561 832.461C203.561 830.505 201.603 828.55 199.645 828.55C198.666 828.55 196.708 828.55 195.729 829.528C189.855 832.461 185.939 836.372 183.002 841.26C182.023 843.215 183.002 844.193 184.96 844.193C184.96 844.193 186.918 844.193 186.918 844.193Z" fill="black"/>
<path d="M665.651 809.975C666.63 805.087 671.525 800.199 676.42 801.176C679.357 801.176 682.294 803.132 683.273 806.065C684.252 807.042 684.252 808.997 683.273 809.975C683.273 810.953 682.294 811.93 680.336 812.908C679.357 812.908 679.357 812.908 678.378 812.908C675.441 812.908 673.483 813.886 671.525 815.841C669.567 817.796 666.63 816.819 665.651 814.863C665.651 812.908 665.651 811.93 665.651 809.975Z" fill="black"/>
<path d="M789.985 828.55C788.027 829.528 786.069 831.483 784.111 832.461C781.174 835.394 778.237 837.349 774.321 838.327C762.573 843.215 752.783 837.349 749.846 825.617C749.846 823.662 748.867 821.707 748.867 819.752C748.867 818.774 746.909 817.796 745.93 817.796C743.972 818.774 742.993 818.774 741.035 819.752C736.14 821.707 735.161 822.684 736.14 828.55C738.098 848.103 742.993 866.678 748.867 884.276C748.867 885.253 748.867 885.253 749.846 886.231C749.846 887.209 749.846 889.164 748.867 890.142C747.888 891.119 744.951 891.119 743.972 890.142C742.993 889.164 742.014 888.186 742.014 887.209C741.035 885.253 740.056 883.298 739.077 881.343C736.14 874.499 734.182 867.656 732.224 860.813C731.245 855.924 729.287 851.036 728.308 845.17C728.308 844.193 727.329 843.215 727.329 842.237C727.329 842.237 727.329 842.237 726.35 842.237C725.371 842.237 725.371 842.237 724.392 842.237C723.413 844.192 722.434 846.148 721.455 848.103C716.56 859.835 709.707 869.611 700.895 879.388C696.979 884.276 692.084 888.186 686.21 892.097C684.252 894.052 681.315 895.03 678.378 896.007C676.42 896.985 674.462 897.963 671.525 897.963C666.63 897.963 662.714 896.007 660.756 892.097C659.777 890.142 658.798 888.186 657.819 885.254C656.84 880.365 655.861 874.499 656.84 869.611C657.819 865.701 657.819 861.79 658.798 857.879C658.798 856.902 658.798 855.924 657.819 855.924C656.84 855.924 655.861 854.947 655.861 855.924C652.924 857.88 649.008 858.857 646.071 860.813C644.113 861.79 644.113 863.745 644.113 865.701C646.071 878.41 642.155 889.164 635.302 899.918C630.407 907.739 623.554 913.605 615.722 918.493C613.764 919.471 610.827 920.448 608.869 921.426C603.974 922.404 600.058 920.448 598.1 915.56C597.121 913.605 597.121 912.627 596.142 910.672C596.142 909.694 594.184 909.694 594.184 910.672C592.226 911.65 590.268 913.605 588.31 914.583C583.415 918.493 578.52 921.426 573.625 923.381C570.688 924.359 568.73 924.359 565.793 925.337C559.919 926.314 554.045 924.359 549.15 920.448C548.171 919.471 547.192 918.493 545.234 917.516C544.255 917.516 543.276 917.516 543.276 917.516C539.36 920.448 537.401 923.381 537.401 928.27C537.401 931.203 537.401 935.113 537.401 938.046C537.401 947.822 537.402 958.577 535.444 968.353C534.465 974.219 533.486 980.084 531.528 984.973C530.549 988.883 528.591 992.794 526.633 995.727C524.675 998.66 522.717 1000.62 519.78 1002.57C514.884 1005.5 509.01 1004.53 505.094 999.637C503.136 997.682 502.157 995.727 501.178 992.794C499.22 986.928 499.22 982.04 500.199 976.174C501.178 969.33 504.116 962.487 507.053 956.621C509.99 950.755 513.905 944.89 518.8 939.024C519.779 937.068 521.737 935.113 522.716 933.158C524.674 930.225 525.654 927.292 525.654 924.359C525.654 914.583 525.654 904.806 525.654 896.007C525.654 895.03 525.654 895.03 524.675 894.052L523.695 893.075C522.716 894.052 521.738 895.03 520.759 896.007C516.843 900.896 512.926 904.806 508.031 907.739C505.094 909.694 502.157 911.65 500.199 914.583C497.262 917.516 494.325 920.448 491.388 922.404C489.43 924.359 487.472 925.337 485.514 926.314C479.64 929.247 472.787 927.292 468.871 922.404C466.913 920.448 465.934 917.516 464.955 914.583C463.976 910.672 463.976 906.762 462.997 903.829L462.018 902.851C462.018 902.851 461.039 902.851 460.06 902.851C459.081 903.829 458.102 904.806 457.123 906.761C455.165 910.672 452.228 914.583 450.27 917.516C448.312 920.448 446.354 922.404 444.396 925.337C443.417 926.314 442.438 928.27 440.48 929.247C439.501 930.225 437.543 931.202 435.585 931.202C431.669 932.18 427.753 929.247 426.774 926.314C425.795 924.359 425.795 921.426 425.795 919.471C425.795 915.56 426.774 911.65 427.753 907.739C428.732 902.851 429.711 897.963 430.69 892.097C431.669 889.164 431.669 887.209 431.669 884.276C431.669 882.321 429.711 880.365 427.753 880.365C424.816 880.365 420.9 880.365 417.963 882.32C416.984 882.32 416.005 884.276 416.984 885.254C417.963 886.231 417.963 888.186 418.942 889.164C419.921 893.075 419.921 896.985 418.942 899.918C415.026 909.695 408.173 916.538 399.362 920.448C395.446 922.404 391.53 922.404 387.614 919.471C386.635 918.493 385.656 918.493 384.677 917.516C383.698 916.538 381.74 916.538 380.761 916.538C379.782 916.538 377.824 917.516 376.845 917.516C370.971 918.493 365.097 917.516 360.202 914.583C356.286 912.627 353.349 909.694 350.412 907.739C348.454 905.784 345.517 904.806 343.559 902.851C342.58 901.873 340.622 902.851 340.622 902.851C339.643 903.829 338.664 904.806 338.664 905.784C336.706 907.739 334.747 909.694 332.789 911.65C330.831 913.605 327.895 915.56 325.937 916.538C320.063 919.471 313.209 918.493 309.293 912.627C308.314 911.65 308.314 911.65 307.335 910.672C303.419 903.828 300.482 895.03 298.524 887.209C298.524 886.231 298.524 885.253 298.524 883.298C298.524 879.388 301.461 876.455 305.377 875.477C307.335 875.477 309.293 875.477 310.272 875.477C314.188 875.477 318.104 877.432 322.02 878.41C325.936 880.365 329.852 881.343 333.769 883.298C335.727 884.276 337.685 883.298 338.664 881.343C338.664 881.343 338.664 881.343 338.664 880.365C345.517 868.634 351.39 856.902 356.286 845.17C356.286 844.193 356.286 844.193 356.286 843.215C356.286 842.237 355.307 841.26 354.328 840.282C352.37 840.282 349.433 839.304 347.475 839.304C344.538 838.327 342.58 837.349 339.643 835.394C338.664 833.439 337.684 831.483 337.684 829.528C337.684 828.55 337.685 827.573 338.664 826.595C338.664 825.618 339.642 824.64 341.6 824.64C342.579 824.64 343.559 824.64 344.538 825.617C344.538 826.595 345.517 827.573 345.517 827.573C346.496 828.55 347.475 829.528 348.454 829.528C353.349 830.506 357.265 829.528 361.181 827.573C363.139 826.595 364.118 825.617 364.118 823.662C365.097 821.707 366.076 819.752 367.055 816.819C369.992 809.975 372.929 803.132 375.866 796.288C377.824 792.378 379.782 789.445 381.74 786.512C383.698 783.579 385.656 781.624 387.614 779.668C389.572 778.691 390.551 777.713 393.488 776.735C398.383 775.758 402.299 778.691 403.278 782.601C404.257 784.557 404.257 787.489 404.257 789.445C404.257 794.333 402.299 798.243 400.341 803.132C397.404 808.997 394.467 814.863 389.572 818.774C387.614 821.707 384.677 823.662 381.74 826.595C372.929 834.416 372.929 835.394 369.992 843.215C364.118 856.902 358.244 871.567 351.39 884.276C351.39 885.253 350.412 886.231 350.412 886.231C349.433 888.186 349.432 890.142 351.39 891.119C357.265 895.03 362.16 898.94 368.034 901.873C369.992 902.851 371.95 903.829 374.887 904.806C376.845 905.784 378.803 905.784 380.761 904.806C382.719 904.806 383.698 903.829 383.698 901.873C384.677 899.918 384.677 898.94 384.677 896.985C386.635 889.164 389.572 881.343 394.467 873.522C396.425 870.589 397.404 868.633 399.362 866.678C400.341 865.701 402.299 863.745 404.257 862.768C407.194 860.812 410.131 861.79 413.068 863.745C414.047 864.723 414.047 865.701 415.026 866.678C416.005 866.678 416.984 867.656 416.984 867.656C418.942 867.656 421.879 866.678 423.837 865.701C426.774 864.723 429.711 864.723 432.648 864.723C438.522 864.723 443.417 869.611 444.396 875.477C445.375 879.388 444.396 884.276 443.417 888.186C442.438 892.097 441.459 896.008 441.459 898.94C441.459 899.918 441.459 900.896 441.459 902.851L442.438 903.829H443.417C444.396 902.851 445.375 901.873 446.354 900.896C449.291 895.03 453.207 890.142 456.144 884.276C457.123 882.321 459.081 879.388 460.06 877.432C461.039 876.455 462.018 875.477 462.997 873.522C464.955 871.566 467.892 870.589 470.829 870.589C473.766 871.567 475.724 874.499 476.703 877.432C476.703 881.343 476.703 885.254 476.703 890.142C476.703 896.008 476.703 901.873 478.661 907.739C478.661 909.694 479.64 911.65 480.619 913.605C481.598 916.538 484.535 917.516 486.493 917.516C487.472 917.516 488.451 917.515 489.43 916.538C493.346 914.583 497.262 912.627 500.199 909.695C502.157 908.717 501.178 906.761 500.199 905.784C499.22 905.784 498.241 904.806 498.241 904.806C495.304 902.851 493.346 899.918 493.346 896.007C493.346 893.074 493.346 889.164 494.325 886.231C496.283 878.41 499.22 871.567 503.136 865.701C505.094 863.745 506.073 861.79 508.031 859.835C512.926 855.924 517.822 855.924 521.738 859.835C522.717 860.813 523.696 861.79 524.675 862.768C525.654 863.745 526.632 863.745 527.611 863.745C528.59 862.768 530.549 862.768 531.528 861.79C535.444 860.812 539.36 862.768 540.339 866.678C540.339 868.633 541.318 870.589 541.318 872.544C541.318 878.41 540.339 884.276 540.339 890.142C540.339 894.052 540.339 897.963 540.339 901.873C540.339 902.851 540.339 903.829 541.318 904.806C541.318 904.806 541.318 904.806 542.297 904.806C543.276 904.806 543.276 904.806 543.276 904.806C543.276 903.829 544.255 901.873 544.255 900.896C544.255 896.985 545.234 894.052 545.234 890.142C546.213 883.298 548.171 877.432 552.087 872.544C554.045 869.611 556.003 867.656 557.961 865.701C560.898 863.745 563.835 862.768 566.772 862.768C571.667 863.745 575.583 867.656 575.583 872.544C575.583 874.499 574.604 877.432 573.625 879.388C572.646 881.343 571.667 883.298 570.688 884.276C567.751 888.186 564.814 892.097 561.877 895.03C560.898 896.985 559.919 897.963 558.94 899.918C557.961 901.873 557.961 902.851 558.94 904.806C560.898 907.739 562.856 909.695 566.772 909.695C567.751 909.695 569.709 909.694 570.688 908.717C572.646 907.739 574.604 907.739 576.562 906.761C588.31 899.918 596.142 891.119 600.058 878.41C601.037 876.455 601.037 875.477 602.016 873.522C602.016 872.544 602.995 870.589 603.974 869.611C604.953 866.678 608.869 864.723 611.806 865.701C614.743 866.678 616.701 869.611 616.701 872.544C616.701 874.499 615.722 877.432 615.722 879.388C613.764 885.253 612.785 892.097 612.785 897.963C612.785 898.94 612.785 899.918 612.785 901.873C612.785 902.851 614.743 903.829 615.722 902.851C616.701 902.851 616.701 901.873 617.68 901.873C624.533 896.985 630.407 890.142 633.344 881.343C635.302 877.432 636.281 873.522 636.281 869.611C636.281 866.678 635.302 863.745 632.365 861.79C631.386 861.79 631.386 860.813 630.407 859.835C627.47 855.924 629.428 850.058 634.323 849.081C635.302 849.081 635.302 849.081 636.281 849.081C641.176 849.081 645.092 847.126 649.987 845.17C654.882 842.237 658.798 840.282 663.693 837.349C665.651 836.371 667.609 835.394 669.567 834.416C674.462 832.461 680.336 836.371 679.357 842.237C679.357 843.215 679.357 845.17 678.378 846.148C677.399 851.036 676.42 854.947 675.441 859.835C674.462 864.723 673.483 870.589 674.462 875.477C674.462 876.455 675.441 878.41 675.441 879.388C675.441 880.365 677.399 881.343 679.357 881.343C680.336 881.343 681.315 880.365 682.294 880.365C684.252 878.41 687.189 877.432 689.147 875.477C702.853 863.745 712.643 848.103 718.517 830.506C718.517 829.528 718.517 828.55 718.517 827.573C718.517 826.595 717.539 825.617 716.56 825.617C714.602 825.617 711.664 826.595 709.706 826.595C707.748 826.595 705.79 826.595 704.811 826.595C702.853 826.595 700.895 824.64 700.895 822.684C699.916 820.729 701.874 817.796 703.832 816.819C705.79 815.841 707.748 815.841 709.706 814.863C712.643 813.886 716.559 812.908 719.497 811.931C721.455 810.953 723.412 809.975 723.412 808.02C723.412 806.064 724.392 803.132 724.392 801.176C725.371 795.311 725.371 789.445 725.371 782.601C725.371 780.646 725.371 778.691 726.35 777.713C727.329 774.78 729.287 772.825 732.224 772.825C735.161 772.825 738.098 774.78 739.077 778.691C739.077 780.646 739.077 782.601 739.077 784.556C739.077 789.445 739.077 794.333 739.077 799.221C739.077 800.199 739.077 801.176 740.056 803.132C740.056 804.109 742.014 805.087 742.993 805.087C743.972 805.087 744.951 804.109 745.93 804.109C748.867 803.132 751.804 801.176 754.741 800.199C755.72 799.221 757.678 799.221 758.657 798.243C763.552 796.288 768.447 800.199 768.447 806.065C768.447 808.02 767.468 809.975 767.468 810.953C767.468 813.886 767.468 815.841 767.468 818.774C767.468 819.752 768.447 820.729 768.447 821.707C769.426 823.662 772.363 824.64 774.321 824.64C777.258 823.662 779.216 822.685 781.174 820.729C784.111 818.774 786.069 815.841 787.048 813.886C789.006 809.975 790.964 807.042 792.922 803.132C793.901 801.176 794.88 799.221 795.859 797.266C797.817 794.333 801.733 792.378 805.649 794.333C806.628 794.333 806.628 795.311 806.628 795.311C809.565 797.266 810.544 796.288 812.502 794.333C815.439 791.4 817.397 788.467 820.334 785.534C823.271 782.601 826.208 780.646 830.124 778.691C831.103 778.691 831.103 778.691 831.103 778.691V779.668C830.124 781.624 829.145 782.601 827.187 784.556C824.25 788.467 821.313 792.378 819.355 796.288C817.397 798.244 816.418 801.176 814.46 804.109C812.502 808.02 811.523 811.931 813.481 815.841C816.418 823.662 818.376 831.483 821.313 839.304C825.229 851.036 828.166 862.768 830.124 874.499C832.082 887.209 833.061 898.94 831.103 911.65C830.124 917.515 829.145 922.404 827.187 927.292C825.229 931.203 823.271 934.135 820.334 937.068C818.376 939.024 815.439 940.979 811.523 941.957C805.649 942.934 800.754 941.957 796.838 938.046C793.901 935.113 791.943 932.18 790.964 928.27C789.006 923.381 787.048 918.493 786.069 913.605C784.111 899.918 783.132 886.231 785.09 872.544C786.069 858.857 789.006 845.17 793.901 831.483C789.985 832.461 790.964 830.506 789.985 828.55C790.964 828.55 789.985 828.55 789.985 828.55ZM815.439 900.896C815.439 894.052 815.439 888.186 814.46 883.298C812.502 867.656 807.607 852.991 802.712 837.349C802.712 836.371 801.733 835.394 801.733 835.394C801.733 834.416 799.775 834.416 799.775 835.394C798.796 836.372 798.796 838.327 797.817 839.304C792.922 858.857 789.985 878.41 790.964 898.94C790.964 905.784 791.943 912.627 793.901 919.471C794.88 923.382 796.838 927.292 798.796 930.225C801.733 935.113 806.628 935.113 809.565 930.225C811.523 927.292 812.502 923.382 813.481 919.471C815.439 912.627 815.439 905.784 815.439 900.896ZM523.695 950.755C523.695 947.822 523.695 945.867 523.695 943.912V942.934L522.716 941.957C521.737 941.957 521.738 941.957 520.759 942.934C514.885 950.755 509.99 958.577 507.053 968.353C506.074 973.241 506.073 977.152 506.073 982.04C506.073 984.973 507.052 986.928 509.01 988.883C509.989 989.861 512.926 990.838 513.905 989.861C514.884 988.883 515.864 987.906 516.843 985.95C518.801 982.04 519.78 977.152 521.738 973.241C522.717 965.42 523.695 957.599 523.695 950.755ZM325.937 895.03C325.937 894.052 324.958 893.075 324.958 893.075C320.062 891.119 315.167 888.186 310.272 886.231C308.314 885.253 306.356 884.276 304.398 885.254C302.44 887.209 304.398 889.164 304.398 892.097C304.398 893.074 305.377 895.03 306.356 896.007C307.335 898.94 309.293 900.896 310.272 903.829C312.23 906.762 315.167 906.762 318.104 904.806C321.041 902.851 323 899.918 324.958 896.985C325.937 896.007 325.937 896.008 325.937 895.03ZM516.843 876.455C515.864 875.477 515.863 873.522 514.884 872.544C513.905 871.566 511.948 871.566 510.969 872.544C509.99 873.522 509.989 873.522 509.01 874.499C506.073 879.388 504.116 884.276 502.158 890.142C502.158 891.119 502.158 891.119 502.158 892.097V893.075C503.137 893.075 503.136 893.075 504.115 893.075H505.094C509.01 889.164 512.926 885.254 514.884 880.365C515.863 879.388 515.864 878.41 516.843 876.455ZM394.467 898.94C394.467 898.94 395.446 899.918 396.425 898.94C399.362 897.963 401.32 896.007 404.257 896.007L405.236 895.03C406.215 893.075 405.236 890.142 404.257 890.142C402.299 889.164 401.32 889.164 399.362 889.164C398.383 889.164 397.404 890.142 397.404 890.142C395.446 893.075 394.467 895.03 394.467 898.94Z" fill="black"/>
<path d="M860.473 349.507C858.515 348.529 856.557 347.552 854.599 346.574C850.683 344.619 849.704 339.73 850.683 335.82C850.683 334.842 851.662 332.887 852.641 331.909C854.599 327.999 856.557 325.066 858.515 322.133C861.452 317.245 864.389 313.334 866.347 308.446C868.305 304.535 870.263 300.625 871.242 296.714C871.242 294.759 870.263 293.781 868.305 293.781C866.347 293.781 864.389 294.759 863.41 294.759C855.578 296.714 848.725 300.625 841.872 303.558C838.935 305.513 835.019 306.491 832.082 308.446C831.103 309.424 829.145 309.424 828.166 309.424C825.229 309.424 823.271 308.446 821.313 305.513C820.334 302.58 820.334 300.625 822.292 298.669C823.271 297.692 824.25 296.714 825.229 296.714C827.187 295.737 830.124 293.781 832.082 292.804C840.893 287.916 850.683 282.05 858.515 275.206C859.494 274.229 860.473 273.251 862.431 272.273C863.41 272.273 864.389 271.296 865.368 271.296C868.305 270.318 872.221 272.273 873.2 275.206C874.179 277.161 874.179 279.117 875.158 281.072C877.116 282.05 878.095 283.027 880.053 284.005C883.969 285.96 884.948 289.871 884.948 293.781C884.948 296.714 884.949 299.647 883.969 302.58C882.011 307.468 880.053 312.357 877.116 317.245C875.158 321.155 872.221 325.066 870.263 328.976C869.284 330.932 868.305 331.909 868.305 333.865C868.305 333.865 868.305 334.842 869.284 334.842H870.263C872.221 333.864 874.179 332.887 875.158 330.932C881.032 326.043 886.907 321.155 893.76 318.222C896.697 316.267 900.613 315.289 903.55 313.334C906.487 312.356 908.445 311.379 911.382 311.379C915.298 311.379 919.214 312.356 922.151 315.289C926.067 320.178 926.067 327.021 921.172 330.932C918.235 332.887 915.298 334.842 912.361 335.82C906.487 337.775 900.612 339.73 894.738 340.708C890.822 341.686 887.886 342.663 883.969 343.641C882.011 344.619 881.032 344.619 879.074 345.596C878.095 345.596 878.095 347.551 878.095 347.551C878.095 348.529 879.074 349.507 880.053 349.507C882.99 351.462 885.928 351.462 888.865 351.462C895.718 352.44 902.571 351.462 908.445 350.484C913.34 349.507 918.235 347.552 923.13 345.596C925.088 344.619 926.067 343.641 928.025 343.641C930.962 342.663 933.899 343.641 934.878 346.574C936.836 348.529 936.836 352.44 934.878 354.395C933.899 355.373 931.941 357.328 930.962 358.306C924.109 364.171 917.255 370.037 910.402 375.903C909.423 376.881 908.445 378.836 907.466 379.814C907.466 379.814 907.466 380.791 907.466 381.769C907.466 381.769 907.466 381.769 908.445 381.769C910.403 381.769 911.382 381.769 913.34 381.769C920.193 379.814 927.045 378.836 933.899 376.881C935.857 376.881 937.815 375.903 939.773 375.903C942.71 375.903 945.647 376.881 946.626 379.814C947.605 381.769 947.605 385.679 945.647 387.635C944.668 388.612 942.71 389.59 941.731 391.545C932.92 398.389 923.129 405.232 914.318 412.076C913.339 413.053 911.381 414.031 910.402 415.986C909.423 416.964 909.423 418.919 910.402 418.919C913.339 419.897 915.298 421.852 918.235 422.83C925.088 425.763 930.962 429.673 936.836 434.561C938.794 436.517 940.752 438.472 942.71 440.427C943.689 441.405 943.689 442.383 944.668 443.36C945.647 445.315 944.668 446.293 943.689 447.271C942.71 448.248 941.731 448.248 941.731 447.271C940.752 443.36 938.794 441.405 935.857 439.45C926.067 432.606 916.276 427.718 905.507 423.807C903.549 422.83 900.613 422.83 898.655 424.785C896.697 426.74 893.759 427.718 891.801 429.673C878.095 439.45 863.41 448.249 848.725 455.092C839.914 459.003 831.103 462.913 822.292 465.846C815.439 467.801 808.586 469.757 800.754 469.757C795.859 469.757 790.964 469.757 786.069 468.779C778.237 465.846 774.321 459.98 774.321 451.181C774.321 448.248 775.3 446.293 776.279 443.36C779.216 436.517 784.111 430.651 789.985 425.763C796.838 418.919 805.649 414.031 814.46 411.098C829.145 405.232 843.83 404.255 858.515 405.232C867.326 406.21 876.137 408.165 884.948 411.098C892.78 413.053 892.781 413.053 898.655 409.143C901.592 407.188 905.508 404.254 908.445 402.299C909.424 401.322 909.423 401.322 910.402 400.344C910.402 399.366 910.402 399.366 909.423 399.366C907.465 399.366 905.507 399.366 904.528 399.366C902.57 399.366 899.634 398.389 897.676 398.389C892.78 397.411 890.822 392.523 891.801 387.635C891.801 385.679 892.78 382.747 894.738 380.791C896.696 377.858 898.654 375.903 901.591 372.97C902.57 371.992 902.571 371.015 903.55 370.037C903.55 370.037 903.55 368.082 902.571 368.082C899.634 368.082 897.675 367.104 894.738 368.082C889.843 368.082 884.948 367.104 880.053 366.127C879.074 366.127 877.116 365.149 876.137 365.149C872.221 363.194 869.284 361.239 867.326 356.35C862.431 352.44 861.452 350.484 860.473 349.507ZM870.263 413.053C855.578 410.12 845.788 410.121 834.04 411.098C823.271 413.053 813.481 415.986 803.691 422.83C795.859 428.696 789.006 435.539 785.09 444.338C784.111 446.293 784.111 447.271 783.132 449.226C783.132 451.181 784.111 454.114 787.048 455.092C789.006 455.092 790.964 456.069 792.922 456.069C797.817 456.069 802.712 455.092 807.607 454.114C814.46 452.159 822.292 450.204 829.145 446.293C845.788 438.472 861.452 429.673 877.116 419.897C878.095 419.897 878.095 418.919 878.095 418.919C878.095 418.919 879.074 417.941 879.074 416.964C879.074 415.986 878.095 415.009 877.116 415.009C874.179 414.031 871.242 413.053 870.263 413.053Z" fill="black"/>
<path d="M786.069 198.95C785.09 202.861 784.111 204.816 783.132 206.771C781.174 208.727 779.216 210.682 777.258 212.637C775.3 214.592 772.363 216.548 769.426 219.481C767.468 221.436 765.51 223.391 763.552 225.347C762.573 226.324 761.594 227.302 762.573 228.28C762.573 229.257 764.531 229.257 765.51 229.257C768.447 228.28 772.363 227.302 775.3 226.324C784.111 222.414 791.943 218.503 800.754 215.57C802.712 214.593 804.67 213.615 806.628 212.637C808.586 211.66 810.544 212.637 812.502 213.615C815.439 215.57 815.439 219.481 813.481 222.414C812.502 223.391 811.523 224.369 810.544 225.347C807.607 228.279 803.691 230.235 800.754 233.168C797.817 235.123 795.859 238.056 792.922 240.011C791.943 240.989 790.964 242.944 791.943 242.944C792.922 243.922 793.901 243.922 794.88 242.944C796.838 241.966 799.775 241.966 801.733 240.989C809.565 239.034 817.397 236.101 825.229 234.145C827.187 233.168 829.145 233.168 831.103 233.168C833.061 233.168 835.019 234.145 836.977 236.101C837.956 238.056 838.935 240.011 837.956 241.966C836.977 243.922 835.998 244.899 835.019 245.877C832.082 248.81 828.166 252.721 824.25 255.653C823.271 256.631 823.271 257.609 823.271 257.609V258.586H824.25C826.208 258.586 828.166 257.609 829.145 257.609C836.977 254.676 844.809 251.743 852.641 248.81C855.578 247.832 858.515 246.855 862.431 245.877C864.389 244.899 867.326 245.877 869.284 245.877C871.242 246.855 872.221 248.81 872.221 250.765C872.221 251.743 871.242 254.676 869.284 254.676C862.431 254.676 856.557 257.609 850.683 260.542C841.872 264.452 834.04 267.385 826.208 271.296C822.292 273.251 818.376 274.229 814.46 276.184C811.523 277.161 809.565 278.139 806.628 278.139C801.733 278.139 797.817 273.251 798.796 268.363C798.796 266.408 799.775 264.452 800.754 263.475C802.712 260.542 804.67 258.586 806.628 256.631C808.586 254.676 809.565 252.721 811.523 250.765C811.523 249.788 811.523 249.788 811.523 248.81C811.523 248.81 810.544 247.832 809.565 247.832C807.607 247.832 805.649 248.81 804.67 248.81C801.733 249.788 798.796 250.765 794.88 251.743C791.943 252.72 789.985 252.721 787.048 253.698C785.09 253.698 782.153 253.698 780.195 252.721C777.258 251.743 774.321 248.81 774.321 244.899C774.321 243.922 774.321 242.944 774.321 241.966C776.279 235.123 774.321 235.123 768.447 237.078C764.531 238.056 761.594 239.034 757.677 239.034C755.719 239.034 753.761 239.034 752.782 238.056C747.887 236.101 745.93 232.19 746.909 227.302C746.909 224.369 747.888 222.414 749.846 219.481C752.783 216.548 754.74 213.615 757.677 210.682C761.594 206.771 765.51 203.838 769.426 200.906C771.384 198.95 773.342 197.973 775.3 195.04C775.3 194.062 775.3 193.085 775.3 192.107C773.342 189.174 770.405 187.219 766.489 186.241C765.51 186.241 765.51 186.241 764.531 187.219C763.552 188.196 763.552 189.174 762.573 190.152C760.615 196.017 756.698 199.928 752.782 203.839C744.95 209.704 736.14 212.637 727.329 213.615C724.392 213.615 721.454 213.615 718.517 213.615C709.706 211.66 704.811 203.839 708.727 195.04C709.706 192.107 710.685 190.151 712.643 188.196C718.518 181.353 725.37 175.487 733.202 171.576C737.118 169.621 740.055 168.643 743.971 168.643C747.888 168.643 751.804 168.643 754.741 171.576C755.72 171.576 755.72 172.554 756.699 172.554C760.615 176.465 765.51 178.42 771.384 180.375C774.321 181.353 777.258 183.308 780.195 185.263C781.174 186.241 783.132 187.219 784.111 189.174C785.09 193.084 786.069 196.017 786.069 198.95ZM738.097 192.107C737.118 192.107 737.119 191.129 736.14 191.129C736.14 190.152 736.14 190.152 737.119 189.174C738.098 188.196 740.056 187.219 741.035 185.263C741.035 185.263 741.035 184.286 741.035 183.308H740.056C737.119 184.286 734.182 185.263 732.224 188.196C730.266 190.151 728.308 192.107 726.35 193.084C723.412 195.04 721.454 196.995 720.475 199.928C719.496 201.883 720.475 203.839 723.412 203.839C724.391 203.839 724.391 203.839 725.37 203.839C733.202 202.861 741.035 200.906 746.909 195.04C748.867 194.062 749.846 192.107 750.825 190.152C751.804 189.174 750.825 188.196 750.825 187.219C750.825 187.219 749.846 186.241 748.867 186.241C747.888 186.241 745.93 187.219 744.951 187.219C742.014 191.129 740.055 191.129 738.097 192.107Z" fill="black"/>
</svg>
