<?xml version="1.0" encoding="UTF-8"?><svg id="Layer_1" xmlns="http://www.w3.org/2000/svg" viewBox="0 0 106 112"><path d="M66.94,14.9c0-1.36,.27-2.54,.8-3.66,.42-.91,1.01-1.69,1.82-2.3,.4-.3,.83-.54,1.31-.68,.72-.21,1.43-.21,2.13,.1,.03,.02,.05,.08,.07,.13,0,.01-.02,.04-.04,.05-.05,.02-.1,.04-.15,.05-.23,.04-.46,.08-.69,.11-1.27,.17-2.23,.81-2.92,1.87-.9,1.38-1.25,2.9-1.1,4.53,.09,.97,.49,1.8,1.28,2.4,.8,.61,1.68,.92,2.69,.82,.34-.03,.66-.13,.98-.26,.49-.19,.94-.44,1.38-.73,.76-.5,1.46-1.08,2.13-1.7,1.22-1.14,2.3-2.41,3.25-3.77,.64-.91,1.24-1.86,1.86-2.79,.06-.09,.1-.18,.15-.27,.04-.08,0-.23-.07-.29-.1-.08-.21-.16-.32-.22-.85-.45-1.7-.89-2.56-1.33-.6-.31-1.23-.56-1.89-.72-.05-.01-.1-.02-.15-.04-.24-.09-.39-.25-.42-.51-.03-.26,.09-.46,.3-.6,.22-.15,.48-.21,.74-.17,.28,.05,.56,.11,.83,.21,.39,.14,.78,.29,1.15,.48,.81,.41,1.61,.84,2.42,1.26,.18,.1,.37,.2,.54,.31,.25,.15,.48,.18,.7-.04,.09-.09,.21-.16,.32-.22,.17-.09,.43-.04,.57,.11,.1,.1,.14,.22,.13,.35,0,.05-.01,.11-.03,.15-.26,.51-.13,.57,.31,.85,1.33,.86,2.65,1.74,3.9,2.71,.62,.48,1.22,.97,1.81,1.48,.26,.22,.49,.47,.71,.72,.19,.21,.34,.46,.42,.74,.03,.11,.02,.2-.05,.29-.06,.08-.18,.11-.28,.08-.25-.07-.48-.19-.7-.34-.26-.17-.51-.35-.77-.54-.53-.38-1.05-.77-1.58-1.15-1.35-.97-2.73-1.89-4.15-2.76-.63-.38-.65-.38-1.01,.24-.63,1.08-1.27,2.14-1.98,3.17-.95,1.37-1.99,2.66-3.19,3.82-.83,.8-1.7,1.52-2.67,2.13-.58,.36-1.18,.65-1.84,.82-2.11,.54-4.07-.36-5.16-1.75-.56-.72-.83-1.55-.93-2.44-.03-.28-.03-.57-.04-.74Z"/><g><path d="M45.81,12.9c-.05,2.07-.14,4.14-.45,6.2-.15,1.03-.34,2.05-.63,3.05-.14,.5-.32,.99-.51,1.47-.16,.41-.39,.79-.67,1.14-.21,.27-.45,.51-.73,.7-.84,.56-1.7,.58-2.57,.09-.37-.21-.68-.49-.94-.81-.19-.24-.38-.49-.53-.77-.94-1.73-1.35-3.58-1.19-5.56,.04-.52,.18-1.02,.45-1.48,.07-.11,.16-.2,.25-.29,.03-.03,.09-.01,.14,0,.02,0,.04,.04,.04,.06,0,.1,0,.21-.02,.31-.4,2.08,0,4.03,.95,5.88,.2,.39,.45,.76,.77,1.07,.21,.2,.43,.37,.71,.47,.29,.11,.56,.07,.82-.09,.23-.14,.39-.34,.54-.55,.22-.32,.38-.68,.52-1.04,.29-.76,.48-1.54,.64-2.33,.35-1.74,.53-3.49,.61-5.26,.07-1.58,.06-3.17-.02-4.75-.02-.36-.07-.72-.11-1.08,0-.04-.05-.1-.09-.11-.04-.01-.11,.01-.13,.05-.09,.13-.17,.26-.24,.4-.31,.6-.66,1.18-1.03,1.74-.57,.84-1.2,1.63-1.93,2.34-.49,.47-1.02,.89-1.62,1.2-.37,.19-.76,.32-1.19,.33-.55,.02-1.02-.15-1.44-.5-.32-.27-.58-.6-.78-.96-.37-.67-.58-1.39-.73-2.13-.17-.84-.23-1.7-.23-2.56-.01-1.49,.14-2.96,.53-4.4,.07-.25,.15-.5,.24-.74,.05-.12,.12-.23,.2-.33,.11-.15,.33-.21,.49-.14,.16,.06,.26,.19,.26,.35,0,.21,0,.42-.02,.62-.06,.57-.13,1.14-.19,1.7-.16,1.37-.19,2.75-.09,4.12,.04,.65,.15,1.29,.32,1.92,.12,.43,.28,.84,.53,1.21,.37,.54,.82,.67,1.41,.38,.28-.14,.54-.31,.79-.5,.4-.29,.74-.65,1.08-1.01,1.36-1.5,2.36-3.22,3.07-5.11,.04-.1,.07-.2,.1-.29,.25-.68,.29-1.37,.17-2.07-.11-.67-.23-1.33-.32-2-.04-.28-.04-.57-.05-.85,0-.18,.04-.36,.12-.53,.16-.3,.41-.47,.75-.47,.35,0,.6,.17,.75,.47,.08,.16,.13,.34,.16,.52,.07,.44,.13,.87,.17,1.31,.08,.93,.2,1.86,.36,2.78,.38,2.26,.55,4.54,.55,6.84Z"/><path d="M57.79,12.55c0-.26,0-.52-.02-.77,0-.03-.07-.07-.11-.09-.01,0-.05,0-.07,.02-.09,.09-.18,.18-.26,.28-.3,.39-.59,.79-.9,1.17-.16,.2-.36,.37-.55,.55-.14,.12-.32,.17-.51,.18-.22,0-.42-.05-.57-.2-.13-.13-.24-.27-.35-.41-.06-.07-.22-.06-.28,.01-.11,.14-.21,.3-.33,.44-.16,.2-.33,.4-.51,.59-.13,.13-.27,.24-.43,.33-.62,.36-1.34,.13-1.62-.53-.11-.26-.14-.55-.21-.83-.02-.1-.04-.2-.08-.29-.01-.03-.11-.05-.13-.03-.08,.07-.15,.14-.21,.23-.17,.26-.36,.51-.59,.72-.21,.2-.44,.36-.71,.47-.67,.28-1.34-.03-1.55-.72-.1-.33-.13-.66-.11-1,.03-.42,.09-.83,.2-1.23,.1-.35,.22-.69,.22-1.06,0-.19,.1-.35,.24-.47,.19-.17,.39-.34,.58-.52,.24-.23,.51-.37,.84-.36,.41,.01,.76-.11,1.11-.3,.21-.11,.42-.2,.64-.29,.12-.05,.25-.09,.37-.11,.54-.09,.98,.19,1.14,.71,.08,.28,.1,.56,.05,.85-.1,.64-.22,1.28-.32,1.92-.05,.33-.14,.66-.1,1,0,.04,.06,.07,.1,.1,.02,.01,.05,0,.07,0,.02,0,.05-.02,.07-.04,.04-.03,.08-.07,.11-.11,.52-.69,.95-1.43,1.17-2.27,.06-.25,.13-.5,.21-.75,.05-.15,.12-.29,.2-.42,.16-.25,.47-.37,.74-.32,.31,.06,.58,.33,.6,.64,.01,.18,0,.36-.03,.54-.06,.46-.14,.92-.2,1.39-.03,.2-.03,.41-.03,.62,0,.04,.04,.1,.08,.12,.04,.02,.11,.02,.14,0,.1-.08,.2-.16,.28-.26,.6-.72,1.1-1.51,1.55-2.33,.09-.16,.17-.33,.27-.47,.3-.42,.93-.37,1.15,.11,.07,.16,.12,.35,.13,.52,.02,.28,0,.57,0,.86,0,.1,.03,.2,.04,.3,0,.05,.16,.1,.2,.07,.12-.1,.23-.2,.34-.31,.47-.45,.92-.92,1.4-1.36,.71-.65,1.51-1.19,2.36-1.64,.51-.27,1.03-.49,1.59-.63,.43-.11,.87-.13,1.31-.08,.24,.02,.46,.1,.65,.24,.08,.06,.15,.14,.21,.22,.08,.09,.01,.3-.1,.33-.15,.03-.3,.06-.46,.07-.82,.05-1.58,.31-2.28,.72-.47,.27-.92,.58-1.35,.92-1.03,.81-1.92,1.75-2.69,2.8-.28,.38-.55,.76-.82,1.14-.15,.21-.32,.41-.54,.56-.43,.29-1.04,.16-1.29-.29-.07-.13-.12-.29-.13-.44-.02-.26,0-.52,0-.78,.01,0,.03,0,.04,0Zm-6.61-1.43s.11-.05,.12-.08c.12-.45,.24-.89,.35-1.34,.03-.13-.1-.26-.23-.24-.36,.07-.69,.19-1,.38-.07,.04-.09,.21-.03,.28,.27,.28,.48,.6,.66,.95,.02,.03,.09,.04,.13,.05Zm-1.36,.41c-.06-.14-.12-.29-.19-.42-.06-.11-.27-.09-.33,.02-.27,.54-.43,1.11-.47,1.71,0,.05,.01,.11,.04,.15,.03,.03,.09,.07,.12,.06,.07-.02,.15-.06,.2-.11,.24-.25,.41-.54,.51-.86,.05-.17,.07-.35,.11-.54Z"/></g><g><path d="M29.7,16.65c0-.36,.01-.73,.02-1.09,0-.06,.05-.09,.11-.09,.02,0,.05,.02,.06,.04,.05,.09,.11,.18,.14,.28,.32,1.13,.33,2.26,0,3.38-.06,.2-.14,.39-.25,.57-.44,.73-1.12,.9-1.88,.57-.34-.15-.63-.37-.88-.64-.35-.38-.7-.77-1.02-1.18-.45-.57-.84-1.19-1.2-1.82-.09-.16-.18-.31-.27-.48-.24-.46-.4-.51-.69-.07-.46,.69-.9,1.39-1.36,2.09-.18,.28-.24,.56-.14,.89,.15,.52,.27,1.06,.44,1.58,.26,.82,.55,1.62,.82,2.44,.07,.2,.14,.39,.18,.59,.06,.27-.07,.54-.3,.67-.25,.14-.58,.1-.78-.13-.19-.21-.35-.45-.53-.68-.24-.31-.47-.62-.72-.92-.02-.02-.09,0-.13,0-.01,0-.03,.04-.03,.06,.02,.1,.04,.2,.07,.3,.1,.29,.22,.58,.31,.88,.08,.27,.14,.55,.19,.83,.02,.12,0,.26-.02,.39-.04,.22-.18,.37-.39,.44-.17,.06-.4,0-.48,.19-.06,.13-.04,.3-.05,.46,0,.53-.1,1.03-.36,1.5-.16,.28-.22,.58-.22,.9,0,.39-.03,.78-.07,1.17-.05,.57-.21,1.13-.45,1.65-.13,.28-.29,.55-.48,.8-.7,.93-1.72,1.2-2.85,.78-.46-.18-.88-.44-1.28-.73-.7-.5-1.34-1.07-1.95-1.67-.18-.18-.37-.36-.57-.53-.07-.07-.22-.02-.25,.09-.04,.15-.06,.31-.11,.45-.14,.38-.59,.47-.89,.19-.18-.17-.28-.38-.32-.61-.03-.18-.04-.36-.04-.54,0-.23,.02-.47,.06-.7,.08-.4-.05-.7-.32-.99-.59-.62-1.18-1.24-1.83-1.8-.18-.15-.35-.31-.5-.49-.16-.19-.2-.42-.1-.66,.09-.23,.32-.38,.55-.34,.15,.02,.31,.06,.44,.13,.29,.17,.58,.34,.85,.55,.35,.27,.68,.57,1.01,.86,.12,.1,.23,.21,.35,.31,.1,.09,.28,.07,.34-.04,.08-.13,.15-.27,.23-.41,.12-.2,.23-.41,.36-.6,.24-.34,.54-.63,.9-.85,.12-.07,.24-.11,.37-.05,.12,.06,.18,.18,.19,.32,.01,.29-.02,.57-.09,.85-.1,.4-.25,.79-.43,1.17-.12,.26-.24,.52-.35,.78-.07,.18-.03,.36,.09,.51,.03,.04,.07,.08,.1,.12,.86,.94,1.75,1.85,2.75,2.65,.2,.16,.41,.32,.62,.47,.15,.1,.31,.2,.47,.27,.48,.22,.92,.14,1.28-.24,.14-.15,.27-.32,.37-.5,.41-.74,.59-1.55,.63-2.39,0-.17-.07-.3-.2-.4-.06-.05-.13-.09-.2-.13-.33-.21-.6-.49-.83-.82-.68-.98-1.07-2.07-1.22-3.25-.05-.36-.03-.73,.05-1.09,.09-.45,.3-.83,.67-1.11,.65-.5,1.6-.33,2.05,.36,.12,.18,.19,.38,.13,.59-.06,.23,.01,.4,.16,.57,.19,.21,.37,.44,.55,.65,.09,.1,.21,.14,.26,.09,.09-.09,.05-.2,.02-.29-.11-.32-.22-.64-.34-.95-.26-.65-.53-1.3-.79-1.95-.06-.14-.1-.29-.13-.45-.04-.28,.25-.56,.54-.52,.19,.02,.35,.09,.49,.22,.29,.26,.56,.54,.85,.8,.09,.09,.19,.17,.3,.24,.05,.03,.11,0,.12-.05,.02-.07,.04-.15,.02-.22-.11-.56-.22-1.12-.36-1.68-.05-.23-.15-.44-.24-.66-.09-.22-.16-.45-.12-.68,.09-.6-.03-1.19-.08-1.79-.12-1.51-.03-3.01,.31-4.49,.15-.66,.33-1.31,.35-1.99,0-.05,.02-.1,.03-.15,.06-.23,.36-.35,.57-.25,.14,.07,.27,.17,.35,.3,.16,.27,.33,.53,.46,.81,.31,.66,.6,1.33,.9,1.99,.06,.14,.15,.27,.22,.41,.03,.05,.17,.06,.21,.02,.11-.11,.22-.22,.33-.33,.26-.26,.5-.52,.77-.77,.21-.2,.46-.34,.73-.44,.17-.06,.35-.09,.54-.04,.14,.04,.29,.19,.28,.33,0,.13,0,.27-.05,.38-.11,.24-.23,.46-.38,.68-.13,.19-.29,.36-.45,.54-.22,.25-.45,.5-.67,.76-.6,.68-.59,.64-.21,1.42,.48,.98,1.01,1.93,1.65,2.82,.22,.32,.46,.63,.72,.92,.15,.17,.34,.33,.52,.46,.25,.18,.57,.11,.77-.12,.17-.2,.28-.44,.35-.69,.09-.35,.16-.71,.21-1.07,.04-.31,.04-.62,.06-.93,0,0-.02,0-.03,0Zm-8.18-3.91c-.08,1.12,.03,2.15,.18,3.18,.01,.1,.06,.2,.1,.29,.02,.06,.08,.07,.13,.04,.04-.02,.1-.05,.12-.09,.44-.61,.87-1.23,1.3-1.84,.01-.02,.03-.05,.04-.07,.06-.12,.09-.24,.05-.38-.04-.12-.08-.25-.12-.37-.3-.83-.61-1.66-.91-2.48-.05-.15-.11-.29-.17-.43-.02-.04-.07-.08-.1-.11-.05-.04-.09-.03-.14,0-.11,.09-.16,.21-.18,.33-.13,.66-.3,1.32-.29,1.92Zm-3.45,10.78c0,.07-.01,.14,0,.22,.11,1.02,.44,1.97,.98,2.85,.03,.04,.07,.07,.1,.11,.05,.05,.19,.04,.2-.02,.03-.1,.05-.2,.07-.3,.02-.15,.1-.23,.24-.26,.11-.03,.16-.13,.15-.24-.01-.13-.03-.26-.06-.38-.24-.88-.78-1.57-1.43-2.18-.05-.04-.18-.01-.2,.05-.02,.05-.03,.1-.06,.16Z"/><path d="M7.09,32.63c-.73-.03-1.45-.06-2.18-.1-.47-.03-.93-.11-1.37-.27-.96-.35-1.71-.97-2.23-1.85-.21-.36-.35-.75-.36-1.18-.02-.69,.25-1.21,.86-1.54,.23-.12,.47-.21,.72-.28,.5-.14,1.02-.2,1.54-.19,1.21,.02,2.37,.28,3.49,.72,.46,.18,.9,.41,1.27,.74,.12,.1,.21,.23,.3,.35,.11,.15,.01,.38-.17,.44-.15,.06-.31,.08-.46,.03-.25-.08-.49-.16-.73-.27-.55-.24-1.1-.48-1.68-.62-.43-.1-.86-.2-1.29-.28-.59-.1-1.19-.07-1.78,.04-.23,.04-.45,.13-.66,.22-.25,.11-.38,.37-.33,.64,.03,.18,.09,.36,.17,.51,.34,.65,.88,1.08,1.56,1.33,.32,.11,.65,.2,.99,.21,.52,.02,1.04,.05,1.56,.04,.99-.02,1.97,.02,2.96,.11,1.02,.09,2,.31,2.95,.68,1.61,.61,3,1.54,4.12,2.85,.31,.36,.57,.74,.76,1.17,.12,.26,.21,.53,.26,.81,.16,.83-.05,1.54-.61,2.16-.3,.33-.66,.58-1.07,.77-.55,.25-1.13,.38-1.74,.38-.68,0-1.35-.1-2-.3-1.03-.32-1.97-.8-2.82-1.47-.45-.36-.86-.76-1.12-1.28-.03-.07-.04-.15-.04-.22,0-.03,.08-.09,.1-.08,.12,.04,.24,.09,.35,.15,.39,.25,.78,.52,1.17,.77,.73,.47,1.5,.82,2.34,1.05,.61,.17,1.22,.23,1.85,.2,.37-.02,.72-.1,1.06-.24,.27-.11,.51-.26,.71-.47,.36-.37,.46-.8,.35-1.29-.07-.31-.21-.59-.38-.85-.25-.4-.56-.75-.9-1.08-1.05-1.01-2.29-1.7-3.69-2.1-1-.29-2.03-.42-3.08-.44-.26,0-.52,0-.78,0,0,0,0,0,0,.01Z"/></g><g><path d="M15.46,78c.76-.04,1.51,.06,2.25,.22,.55,.12,1.09,.26,1.63,.42,2.06,.62,4.05,1.43,5.95,2.44,.6,.32,1.19,.67,1.75,1.06,.58,.41,1.12,.86,1.58,1.41,.23,.28,.44,.59,.58,.93,.12,.3,.17,.61,.14,.93-.03,.38-.18,.7-.48,.95-.08,.06-.17,.1-.27,.06-.1-.04-.14-.13-.16-.22-.03-.14-.04-.29-.07-.43-.08-.55-.33-1.02-.75-1.39-.27-.25-.55-.48-.84-.7-.79-.58-1.65-1.05-2.52-1.48-.07-.03-.14-.07-.2-.07-.09,0-.19,0-.28,.04-.06,.02-.12,.08-.17,.13-.76,.8-1.62,1.49-2.48,2.17-.75,.59-1.5,1.17-2.25,1.75-1.79,1.39-3.54,2.84-5.25,4.33-.15,.13-.3,.25-.46,.36-.14,.1-.34,.06-.47-.07-.18-.17-.25-.45-.13-.67,.1-.19,.21-.39,.36-.55,.31-.35,.62-.69,.96-1,.57-.53,1.15-1.05,1.75-1.56,1.63-1.39,3.35-2.69,5.07-3.97,.55-.41,1.1-.82,1.64-1.23,.09-.07,.17-.17,.25-.26,.02-.03,.01-.1-.01-.13-.04-.05-.1-.11-.17-.13-1.77-.78-3.55-1.49-5.44-1.94-.64-.15-1.29-.26-1.95-.3-.29-.02-.58-.02-.87,.03-.13,.02-.28-.14-.27-.29,0-.13,.04-.24,.12-.34,.11-.13,.25-.23,.41-.3,.34-.15,.7-.19,1.07-.21Z"/><path d="M19.36,94.47c-.14,0-.29,.02-.43,0-.22-.03-.44-.06-.64-.13-.82-.27-1.22-1.02-1.02-1.85,.06-.26,.17-.51,.31-.74,.49-.78,1.14-1.39,1.95-1.83,.35-.18,.72-.31,1.11-.33,.3-.02,.59,.02,.86,.12,.7,.26,1.26,.89,1.16,1.82-.03,.24-.08,.48-.11,.72-.07,.54-.33,.96-.76,1.29-.72,.54-1.52,.86-2.43,.93Zm.13-1.5c.4-.03,.76-.11,1.1-.23,.11-.04,.22-.1,.32-.16,.36-.23,.5-.58,.47-1-.02-.25-.24-.45-.49-.45-.14,0-.3,.02-.42,.08-.64,.28-1.13,.74-1.49,1.34-.1,.17-.01,.35,.18,.38,.12,.02,.24,.03,.33,.04Z"/></g><g><path d="M73.57,89.06c.09-.59,.65-1.06,1.24-1.03,.35,.02,.64,.19,.8,.52,.07,.15,.08,.3,.03,.46-.05,.16-.16,.26-.32,.31-.06,.02-.13,.03-.2,.02-.31-.03-.55,.08-.77,.32-.19,.22-.53,.14-.68-.11-.09-.16-.13-.33-.11-.5Z"/><path d="M87.65,91.14c-.27,.08-.42,.3-.62,.48-.32,.28-.68,.52-1.08,.68-1.32,.52-2.49-.09-2.79-1.46-.05-.22-.08-.45-.12-.68-.02-.11-.2-.22-.31-.19-.19,.06-.38,.12-.56,.2-.57,.24-.63,.34-.56,.98,.23,2.17,.73,4.28,1.43,6.35,.02,.06,.04,.12,.06,.19,.05,.16,0,.35-.12,.45-.15,.12-.41,.13-.55,.01-.1-.08-.21-.17-.27-.28-.14-.22-.26-.46-.37-.7-.33-.76-.61-1.53-.82-2.33-.16-.57-.29-1.15-.44-1.72-.03-.13-.09-.24-.15-.36-.01-.03-.05-.05-.08-.05-.06,0-.15,0-.17,.05-.13,.23-.24,.47-.35,.71-.58,1.31-1.37,2.48-2.33,3.53-.49,.54-1.02,1.03-1.63,1.44-.27,.18-.56,.34-.85,.49-.24,.12-.5,.18-.76,.18-.54,.01-.97-.2-1.24-.66-.13-.22-.23-.47-.3-.73-.16-.58-.2-1.17-.11-1.76,.07-.46,.14-.91,.21-1.37,.01-.1,.03-.22-.06-.27-.08-.04-.2-.07-.27-.04-.38,.19-.76,.39-1.14,.6-.19,.11-.27,.29-.23,.51,.27,1.42-.19,2.67-.95,3.83-.56,.87-1.29,1.58-2.18,2.12-.26,.15-.52,.27-.83,.3-.55,.06-.96-.15-1.22-.65-.09-.17-.16-.36-.24-.54-.03-.07-.2-.1-.26-.05-.21,.16-.41,.32-.62,.49-.52,.41-1.08,.76-1.71,.97-.28,.09-.57,.16-.86,.19-.69,.07-1.31-.1-1.83-.57-.12-.11-.25-.22-.39-.3-.07-.04-.21-.03-.27,.02-.42,.3-.68,.71-.71,1.24-.02,.36-.02,.72-.02,1.09-.02,1.15-.03,2.31-.2,3.45-.1,.65-.22,1.3-.43,1.93-.14,.44-.32,.87-.59,1.25-.21,.3-.46,.56-.79,.73-.6,.31-1.26,.17-1.69-.35-.19-.23-.32-.5-.41-.78-.18-.61-.21-1.23-.11-1.86,.12-.79,.4-1.53,.78-2.23,.37-.7,.82-1.35,1.29-1.99,.16-.21,.32-.42,.46-.64,.21-.31,.32-.65,.32-1.02,0-1.09,.02-2.17,.03-3.26,0-.06-.02-.14-.06-.18-.03-.04-.13-.08-.16-.06-.13,.1-.26,.2-.36,.33-.42,.51-.9,.96-1.46,1.32-.33,.22-.62,.48-.91,.76-.33,.32-.67,.64-1.02,.93-.2,.17-.43,.31-.66,.43-.72,.36-1.45,.16-1.91-.49-.19-.27-.33-.58-.4-.9-.09-.42-.16-.84-.24-1.26,0-.05-.08-.1-.13-.11-.05-.01-.14,.01-.18,.05-.1,.13-.19,.27-.28,.4-.27,.41-.54,.83-.82,1.23-.21,.29-.45,.57-.69,.84-.13,.15-.28,.29-.44,.39-.16,.1-.35,.19-.54,.23-.43,.09-.88-.18-1.02-.59-.09-.25-.13-.52-.1-.78,.05-.46,.11-.92,.2-1.37,.11-.58,.27-1.16,.39-1.74,.06-.29,.09-.58,.12-.88,.02-.26-.17-.45-.41-.46-.37,0-.72,.06-1.05,.22-.1,.05-.18,.22-.14,.33,.06,.15,.12,.31,.18,.46,.16,.42,.15,.84,0,1.26-.41,1.11-1.18,1.89-2.24,2.37-.44,.2-.9,.18-1.32-.09-.11-.07-.21-.16-.32-.23-.14-.1-.3-.13-.47-.09-.16,.03-.32,.08-.48,.11-.67,.12-1.32,.04-1.9-.32-.39-.24-.77-.5-1.16-.76-.27-.18-.55-.37-.82-.54-.1-.06-.3-.04-.37,.03-.09,.09-.18,.19-.27,.28-.2,.22-.4,.44-.61,.65-.24,.23-.51,.42-.81,.56-.7,.32-1.39,.17-1.87-.42-.06-.08-.12-.15-.17-.24-.49-.83-.83-1.72-1.01-2.67-.02-.13-.02-.26-.02-.39,0-.46,.31-.82,.77-.88,.19-.03,.39-.03,.59,0,.46,.04,.9,.18,1.34,.34,.46,.17,.92,.37,1.38,.55,.2,.08,.39,0,.51-.18,.02-.03,.04-.05,.05-.08,.75-1.28,1.39-2.62,1.94-4,.02-.06,.03-.13,.04-.19,.03-.11-.09-.27-.21-.29-.26-.04-.52-.06-.78-.11-.33-.06-.61-.25-.84-.49-.16-.18-.26-.39-.26-.62,0-.13,.03-.26,.07-.38,.05-.13,.16-.21,.3-.23,.14-.02,.26,.02,.34,.14,.05,.08,.08,.19,.15,.25,.09,.09,.2,.18,.32,.21,.51,.12,.98,.01,1.42-.24,.18-.1,.3-.26,.38-.44,.11-.24,.2-.49,.3-.73,.31-.76,.62-1.53,.95-2.28,.17-.39,.39-.76,.61-1.13,.19-.31,.42-.59,.7-.82,.18-.15,.38-.26,.61-.3,.52-.1,1,.19,1.15,.7,.07,.26,.09,.52,.07,.78-.04,.53-.2,1.03-.41,1.52-.3,.67-.7,1.27-1.19,1.81-.26,.29-.54,.59-.84,.83-1.05,.83-.96,.98-1.33,1.9-.64,1.59-1.3,3.17-2.15,4.66-.05,.09-.09,.18-.13,.27-.1,.21-.07,.4,.12,.52,.62,.43,1.25,.86,1.89,1.27,.22,.14,.48,.23,.72,.31,.22,.08,.45,.08,.68,.03,.17-.04,.31-.14,.36-.3,.06-.19,.09-.38,.14-.57,.21-.94,.57-1.83,1.08-2.64,.17-.28,.38-.54,.6-.78,.15-.16,.35-.3,.55-.41,.35-.2,.7-.14,.99,.15,.09,.09,.16,.21,.27,.29,.07,.05,.19,.1,.27,.08,.26-.05,.51-.13,.76-.21,.32-.1,.65-.12,.98-.1,.7,.04,1.23,.53,1.35,1.22,.09,.49,.03,.99-.06,1.47-.08,.42-.19,.84-.28,1.25-.03,.13-.04,.26-.03,.39,0,.04,.07,.09,.12,.12,.02,.01,.07,0,.09-.02,.11-.12,.23-.24,.31-.38,.38-.62,.75-1.24,1.12-1.86,.15-.25,.3-.51,.46-.76,.09-.14,.19-.27,.3-.39,.24-.26,.54-.38,.89-.29,.35,.09,.6,.39,.63,.8,.03,.46,.03,.92,.03,1.38,0,.66,.02,1.32,.17,1.97,.05,.22,.12,.45,.2,.66,.11,.3,.39,.44,.72,.39,.13-.02,.26-.05,.38-.09,.47-.17,.89-.43,1.27-.75,.18-.15,.16-.33-.05-.48-.08-.06-.17-.1-.25-.15-.36-.23-.53-.58-.58-.99-.05-.36-.02-.72,.06-1.08,.2-.84,.53-1.63,1.02-2.34,.17-.24,.37-.47,.59-.66,.52-.45,1.11-.42,1.6,.04,.12,.11,.21,.25,.32,.37,.1,.11,.23,.14,.35,.08,.15-.07,.29-.16,.44-.22,.41-.15,.91,.12,1.01,.55,.05,.22,.06,.46,.06,.69-.02,.66-.06,1.32-.08,1.98-.02,.43-.04,.86-.04,1.28,0,.09,.04,.19,.07,.28,0,.02,.05,.04,.07,.05,.07,.04,.14,.03,.16-.06,.05-.15,.1-.31,.12-.47,.05-.39,.06-.79,.13-1.18,.12-.72,.38-1.4,.76-2.02,.18-.28,.39-.53,.65-.73,.3-.23,.65-.32,1.02-.28,.55,.06,.97,.53,.95,1.08,0,.27-.08,.52-.22,.75-.12,.2-.25,.39-.39,.57-.31,.42-.64,.84-.95,1.26-.14,.18-.26,.38-.37,.58-.1,.19-.07,.38,.03,.57,.19,.34,.49,.53,.88,.53,.16,0,.33-.02,.49-.07,.22-.07,.44-.15,.64-.27,1.28-.72,2.2-1.76,2.68-3.17,.06-.19,.11-.38,.17-.57,.05-.16,.1-.31,.17-.46,.16-.36,.54-.53,.9-.42,.32,.1,.54,.41,.5,.76-.03,.26-.08,.52-.15,.77-.18,.71-.3,1.42-.3,2.15,0,.13,.01,.26,.03,.39,.01,.16,.24,.25,.38,.16,.06-.03,.12-.06,.17-.1,.81-.6,1.42-1.37,1.82-2.29,.19-.43,.3-.87,.3-1.34,0-.38-.08-.72-.43-.94-.08-.05-.15-.13-.21-.2-.35-.4-.12-1.06,.4-1.17,.06-.01,.13-.03,.19-.03,.55,.03,1.03-.17,1.49-.44,.51-.3,1.03-.59,1.54-.89,.2-.11,.4-.23,.62-.31,.56-.2,1.17,.27,1.13,.87,0,.16-.05,.32-.09,.48-.12,.51-.25,1.02-.36,1.54-.12,.58-.18,1.17-.12,1.77,.01,.16,.06,.32,.1,.48,.04,.14,.27,.26,.4,.21,.12-.05,.25-.09,.36-.16,.27-.19,.55-.37,.8-.58,1.58-1.37,2.69-3.06,3.34-5.05,.04-.12,.03-.26,.04-.39,0-.08-.12-.19-.2-.18-.26,.04-.52,.08-.78,.11-.2,.02-.39,.02-.59,0-.23-.01-.42-.2-.48-.43-.07-.25,.07-.56,.3-.67,.21-.09,.43-.17,.65-.23,.38-.1,.77-.18,1.15-.29,.23-.07,.4-.23,.45-.48,.05-.26,.08-.52,.11-.78,.06-.69,.1-1.38,.15-2.07,.01-.2,.03-.39,.07-.59,.06-.33,.37-.57,.71-.59,.37-.01,.71,.27,.76,.64,.03,.23,.03,.46,.04,.69,.02,.56,.03,1.12,.05,1.68,0,.13,.04,.26,.06,.39,.02,.11,.2,.22,.31,.19,.13-.04,.26-.07,.37-.12,.33-.16,.65-.32,.97-.48,.15-.07,.29-.15,.45-.2,.58-.19,1.15,.27,1.09,.89-.02,.2-.08,.39-.1,.58-.03,.29-.04,.59-.04,.89,0,.13,.06,.26,.11,.37,.1,.25,.4,.38,.65,.33,.3-.06,.56-.2,.79-.4,.28-.23,.53-.5,.7-.82,.22-.4,.43-.82,.64-1.23,.12-.23,.22-.48,.36-.7,.2-.32,.65-.56,1.12-.29,.06,.03,.11,.07,.16,.11,.32,.24,.45,.1,.66-.13,.29-.32,.57-.64,.87-.95,.33-.33,.69-.61,1.12-.8,.07-.03,.14-.02,.17,.05,.01,.03,0,.07-.01,.09-.13,.19-.26,.38-.4,.56-.31,.43-.63,.85-.93,1.28-.19,.27-.35,.56-.53,.84-.26,.42-.31,.85-.15,1.33,.3,.87,.58,1.75,.86,2.63,.42,1.32,.76,2.66,.99,4.03,.24,1.41,.29,2.82,.12,4.23-.08,.63-.23,1.23-.47,1.81-.18,.43-.42,.82-.76,1.14-.27,.25-.58,.44-.95,.51-.63,.12-1.17-.04-1.64-.47-.32-.3-.54-.66-.72-1.05-.24-.55-.4-1.12-.51-1.7-.27-1.54-.28-3.08-.13-4.63,.16-1.58,.49-3.12,.96-4.64,.08-.25,.18-.5,.07-.77,0,0,.03,.03,.03,.03h-.02Zm2.83,8.17c0-.77-.05-1.39-.14-2.01-.25-1.76-.72-3.47-1.28-5.16-.03-.09-.09-.17-.14-.25-.04-.07-.22-.07-.25,0-.07,.15-.16,.29-.21,.44-.59,2.2-.91,4.44-.79,6.72,.04,.79,.15,1.57,.37,2.33,.13,.44,.31,.87,.58,1.24,.38,.51,.85,.5,1.19-.02,.24-.36,.36-.77,.46-1.19,.18-.74,.22-1.49,.2-2.1Zm-32.92,5.71c0-.36,0-.56,0-.75,0-.03-.01-.07-.04-.09-.05-.04-.11-.08-.16-.08-.06,0-.13,.04-.17,.08-.7,.85-1.23,1.79-1.51,2.86-.13,.52-.13,1.04-.06,1.57,.04,.3,.14,.57,.32,.82,.12,.16,.39,.21,.52,.06,.11-.12,.21-.25,.29-.39,.26-.47,.39-.98,.5-1.49,.2-.9,.25-1.83,.32-2.58Zm-22.38-6.34c-.05-.06-.09-.17-.16-.21-.53-.26-1.07-.5-1.61-.74-.2-.09-.45-.26-.64-.09-.25,.22-.02,.48,.05,.72,.05,.16,.11,.31,.19,.45,.15,.29,.3,.58,.48,.86,.21,.32,.54,.34,.85,.09,.3-.25,.57-.54,.78-.88,.03-.05,.03-.12,.06-.21Zm21.51-2.06c-.07-.14-.14-.29-.22-.43-.08-.13-.34-.16-.43-.05-.06,.07-.14,.14-.19,.23-.34,.56-.61,1.16-.73,1.81-.01,.06-.01,.13,0,.19,0,.03,.03,.07,.05,.08,.06,.02,.12,.04,.18,.04,.03,0,.07-.02,.09-.04,.48-.4,.86-.89,1.16-1.44,.06-.11,.06-.25,.09-.39Zm-13.78,2.48s.15,.09,.22,.05c.29-.15,.58-.3,.91-.34,.05,0,.1-.08,.14-.13,.12-.2,.03-.5-.16-.6-.18-.09-.38-.12-.57-.06-.09,.03-.19,.08-.24,.15-.18,.24-.29,.51-.29,.93Z"/></g><g><path d="M95.62,36.93c-.22-.12-.43-.23-.63-.36-.41-.27-.6-.76-.48-1.25,.04-.16,.1-.33,.18-.48,.2-.39,.42-.78,.64-1.16,.31-.53,.63-1.05,.94-1.58,.24-.41,.44-.84,.53-1.32,.03-.17-.13-.36-.29-.34-.2,.03-.4,.06-.6,.12-.85,.25-1.66,.61-2.44,1.02-.36,.19-.72,.38-1.09,.56-.15,.07-.32,.11-.49,.13-.3,.04-.6-.16-.73-.45-.11-.28-.07-.54,.11-.77,.08-.1,.19-.19,.31-.26,.26-.16,.53-.3,.8-.45,1.04-.58,2.05-1.2,2.97-1.96,.13-.11,.27-.21,.41-.3,.08-.05,.18-.09,.28-.12,.32-.11,.73,.07,.84,.39,.08,.22,.13,.45,.2,.69,.18,.11,.35,.21,.52,.32,.39,.27,.58,.65,.59,1.13,.01,.35-.04,.68-.16,1-.2,.58-.44,1.14-.76,1.67-.26,.44-.53,.87-.78,1.31-.1,.18-.19,.36-.26,.55-.01,.03,.05,.11,.09,.15,.02,.02,.07,.03,.09,.02,.19-.13,.39-.26,.57-.42,.64-.57,1.33-1.06,2.07-1.48,.36-.2,.73-.38,1.11-.52,.28-.11,.59-.17,.89-.2,.46-.04,.87,.12,1.19,.47,.49,.54,.44,1.35-.12,1.82-.29,.24-.63,.4-.99,.5-.65,.2-1.3,.39-1.95,.58-.39,.12-.79,.22-1.17,.35-.19,.06-.38,.15-.55,.25-.07,.04-.14,.17-.13,.25,0,.08,.1,.18,.18,.23,.3,.17,.64,.22,.98,.26,.75,.07,1.49,.04,2.23-.13,.56-.13,1.12-.3,1.64-.55,.18-.09,.37-.17,.56-.23,.3-.1,.62,.03,.8,.3,.17,.26,.19,.62,0,.86-.12,.16-.28,.3-.43,.43-.76,.68-1.53,1.35-2.29,2.03-.15,.13-.26,.3-.38,.47-.02,.04,.01,.12,.04,.18,0,.03,.05,.06,.08,.05,.17,0,.34,.01,.5-.03,.76-.17,1.52-.35,2.28-.53,.23-.05,.46-.11,.7-.15,.31-.04,.61,.13,.76,.41,.14,.27,.1,.64-.11,.86-.14,.14-.3,.27-.47,.39-1.04,.77-2.08,1.53-3.12,2.3-.16,.12-.32,.25-.47,.39-.09,.08-.08,.31,.02,.36,.3,.17,.59,.33,.89,.49,.72,.38,1.44,.77,2.08,1.28,.24,.19,.46,.4,.67,.63,.09,.09,.14,.23,.19,.36,.06,.17,.01,.33-.12,.46-.07,.07-.24,.06-.26-.03-.07-.4-.35-.65-.66-.86-1.07-.73-2.23-1.29-3.43-1.79-.27-.11-.53-.09-.78,.07-.26,.17-.51,.34-.76,.51-1.58,1.06-3.19,2.07-4.92,2.9-.98,.47-1.98,.89-3.02,1.22-.78,.25-1.58,.41-2.39,.48-.55,.04-1.09,0-1.61-.16-.9-.28-1.38-1.02-1.28-1.95,.03-.31,.13-.6,.26-.88,.36-.79,.88-1.45,1.51-2.03,.81-.74,1.74-1.3,2.77-1.69,1.62-.61,3.29-.82,5.01-.64,1.02,.11,2.01,.32,2.99,.62,.83,.26,.87,.24,1.6-.26,.36-.25,.72-.51,1.08-.77,.08-.06,.13-.15,.18-.24,.04-.07,0-.15-.07-.16-.2-.02-.41,0-.61-.02-.27-.03-.54-.06-.8-.15-.51-.16-.79-.68-.7-1.21,.05-.27,.14-.53,.31-.74,.23-.29,.49-.57,.73-.85,.08-.1,.16-.21,.22-.33,.02-.04-.03-.17-.06-.17-.3-.03-.6-.06-.91-.05-.55,.01-1.08-.08-1.61-.22-.16-.04-.33-.09-.48-.16-.44-.21-.82-.49-1.01-.96-.06-.16-.13-.31-.2-.46Zm1,7.19c-1.71-.32-2.8-.37-4.08-.17-1.23,.19-2.37,.6-3.39,1.31-.91,.63-1.65,1.41-2.12,2.42-.08,.18-.14,.38-.18,.58-.05,.28,.14,.58,.4,.63,.23,.04,.47,.08,.7,.07,.55,0,1.08-.11,1.61-.24,.83-.2,1.63-.49,2.41-.84,1.91-.83,3.7-1.87,5.43-3.02,.06-.04,.11-.08,.16-.13,.04-.05,.07-.11,.09-.18,.02-.06-.07-.19-.17-.22-.36-.1-.72-.2-.85-.24Z"/><path d="M87.1,19.89c-.09,.41-.19,.66-.37,.87-.2,.23-.4,.46-.62,.67-.27,.26-.56,.5-.84,.74-.23,.2-.45,.41-.67,.62-.09,.09-.18,.2-.15,.35,.02,.09,.2,.15,.36,.1,.36-.11,.72-.2,1.07-.35,.97-.41,1.93-.84,2.9-1.26,.22-.1,.43-.21,.65-.28,.24-.08,.47-.03,.67,.14,.3,.26,.35,.72,.1,1.01-.11,.13-.24,.24-.37,.35-.37,.3-.75,.59-1.11,.89-.31,.26-.6,.55-.9,.83-.14,.13-.17,.29-.1,.35,.12,.1,.25,.08,.38,.05,.26-.07,.53-.13,.79-.2,.88-.25,1.76-.52,2.64-.77,.23-.07,.46-.13,.69-.16,.25-.04,.47,.07,.62,.28,.15,.21,.17,.45,.06,.68-.09,.18-.21,.35-.35,.49-.38,.39-.78,.75-1.17,1.13-.07,.07-.11,.17-.15,.26-.01,.02,0,.06,.03,.09,.02,.02,.06,.05,.08,.05,.2-.05,.39-.09,.58-.16,.9-.32,1.79-.65,2.69-.97,.35-.12,.72-.21,1.08-.3,.27-.07,.54-.05,.8,.05,.22,.08,.38,.31,.37,.56,0,.16-.16,.39-.28,.39-.78-.01-1.44,.36-2.12,.65-.94,.39-1.87,.82-2.8,1.23-.44,.19-.87,.39-1.31,.56-.28,.12-.58,.19-.89,.19-.58,0-1.03-.54-.89-1.1,.05-.19,.12-.39,.23-.56,.19-.28,.41-.54,.62-.81,.17-.21,.34-.42,.51-.64,.05-.07,.05-.14-.02-.18-.05-.03-.12-.08-.18-.07-.2,.04-.4,.1-.59,.16-.36,.11-.71,.25-1.06,.36-.29,.09-.59,.16-.89,.22-.27,.05-.54,.02-.8-.07-.35-.13-.62-.49-.61-.86,0-.1,0-.21,.03-.3,.22-.77,.04-.8-.68-.56-.39,.13-.79,.23-1.2,.2-.2-.01-.41-.05-.59-.12-.51-.2-.77-.7-.68-1.23,.05-.31,.15-.6,.36-.83,.29-.33,.58-.67,.91-.96,.43-.39,.89-.74,1.33-1.11,.23-.2,.48-.38,.62-.67,.04-.08,.05-.22,.01-.29-.21-.38-.55-.58-.98-.62-.06,0-.14,.03-.18,.08-.08,.11-.15,.22-.2,.35-.22,.64-.63,1.12-1.16,1.52-.86,.65-1.84,1.03-2.91,1.13-.33,.03-.68,.02-1.01-.05-1.03-.21-1.51-1.13-1.09-2.1,.12-.28,.27-.55,.46-.79,.63-.82,1.41-1.47,2.35-1.92,.4-.19,.82-.33,1.26-.38,.46-.05,.88,.04,1.26,.3,.06,.04,.11,.07,.17,.12,.48,.4,1.03,.65,1.62,.84,.36,.12,.69,.28,.99,.51,.16,.12,.31,.27,.43,.42,.24,.31,.31,.67,.26,.93Zm-5.39-.78c-.09-.04-.15-.07-.21-.09,.03-.06,.05-.13,.09-.17,.15-.14,.31-.27,.45-.41,.02-.03-.01-.12-.03-.18,0-.02-.06-.03-.09-.03-.39,.07-.7,.27-.94,.56-.2,.25-.42,.43-.69,.58-.31,.17-.5,.45-.65,.76-.11,.25,.03,.48,.32,.49,.07,0,.14,.01,.2,0,.9-.08,1.72-.38,2.43-.96,.18-.15,.32-.35,.47-.53,.06-.07,.04-.25-.02-.29-.05-.03-.12-.07-.18-.06-.17,.03-.33,.09-.49,.13-.23,.06-.46,.11-.66,.16Z"/></g></svg>